<?xml version="1.0" encoding="UTF-8" standalone="no"?>
<!-- Created with Inkscape (http://www.inkscape.org/) -->

<svg
   width="210mm"
   height="297mm"
   viewBox="0 0 210 297"
   version="1.1"
   id="svg18255"
   inkscape:version="1.1.1 (1:1.1+202109281949+c3084ef5ed)"
   sodipodi:docname="abhedya.svg"
   xmlns:inkscape="http://www.inkscape.org/namespaces/inkscape"
   xmlns:sodipodi="http://sodipodi.sourceforge.net/DTD/sodipodi-0.dtd"
   xmlns:xlink="http://www.w3.org/1999/xlink"
   xmlns="http://www.w3.org/2000/svg"
   xmlns:svg="http://www.w3.org/2000/svg">
  <sodipodi:namedview
     id="namedview18257"
     pagecolor="#ffffff"
     bordercolor="#666666"
     borderopacity="1.0"
     inkscape:pageshadow="2"
     inkscape:pageopacity="0.0"
     inkscape:pagecheckerboard="0"
     inkscape:document-units="mm"
     showgrid="false"
     inkscape:zoom="0.64052329"
     inkscape:cx="396.55076"
     inkscape:cy="561.25984"
     inkscape:window-width="1920"
     inkscape:window-height="1022"
     inkscape:window-x="0"
     inkscape:window-y="27"
     inkscape:window-maximized="1"
     inkscape:current-layer="layer1" />
  <defs
     id="defs18252">
    <linearGradient
       inkscape:collect="always"
       xlink:href="#linearGradient865"
       id="linearGradient867"
       x1="203.23097"
       y1="171.95561"
       x2="99.137978"
       y2="66.685242"
       gradientUnits="userSpaceOnUse"
       gradientTransform="matrix(1.6155759,0,0,1.6155759,-120.49709,-35.294867)" />
    <linearGradient
       inkscape:collect="always"
       id="linearGradient865">
      <stop
         style="stop-color:#0082af;stop-opacity:1"
         offset="0"
         id="stop861" />
      <stop
         style="stop-color:#3fc1c6;stop-opacity:1"
         offset="1"
         id="stop863" />
    </linearGradient>
  </defs>
  <g
     inkscape:label="Layer 1"
     inkscape:groupmode="layer"
     id="layer1">
    <path
       style="fill:url(#linearGradient867);fill-opacity:1;stroke-width:3.20949"
       d="m 179.68114,242.54058 c -1.38681,-0.33559 -3.79123,-1.22027 -5.34318,-1.96601 -2.5302,-1.21581 -4.68724,-3.21328 -20.88276,-19.33775 -17.90508,-17.82657 -18.0611,-17.99695 -18.05994,-19.72408 8.4e-4,-1.31062 0.26928,-1.99406 1.08359,-2.75907 l 1.08247,-1.01693 -5.88561,-5.89685 c -3.23708,-3.2433 -6.02211,-5.89689 -6.18901,-5.89689 -0.16689,0 -1.47505,0.68669 -2.90703,1.52595 -6.17804,3.62085 -16.59557,7.36503 -24.846849,8.9303 C 70.36807,201.59026 41.015416,191.60017 22.470236,170.7839 10.515488,157.36511 3.0977992,141.33779 1.1639877,124.74765 0.34640862,117.73366 0.83101659,105.82103 2.1957919,99.383493 5.9276249,81.780831 15.369794,65.553103 28.737053,53.768524 53.563384,31.881597 89.565003,26.988765 119.36684,41.451436 c 9.05397,4.393852 16.07852,9.498675 23.32683,16.951878 13.9073,14.30047 21.48391,31.047097 23.10987,51.080056 1.26072,15.53272 -2.50834,32.16882 -10.38424,45.83474 l -2.18149,3.78517 5.49972,5.51197 c 3.02485,3.03157 5.66449,5.51195 5.86589,5.51195 0.20155,0 0.85529,-0.38472 1.45306,-0.8549 0.62801,-0.49402 1.73408,-0.85492 2.62,-0.85492 1.44854,0 2.49712,0.9616 18.99341,17.41877 19.10857,19.06322 20.11372,20.28642 21.67,26.37138 1.54899,6.05654 0.94664,11.95358 -1.80331,17.65415 -1.87454,3.88583 -6.75563,8.79995 -10.60937,10.68112 -5.30451,2.58942 -11.72644,3.33331 -17.24607,1.99778 z m 8.80541,-8.34839 c 5.04079,-1.06954 8.96318,-4.19785 11.18257,-8.91866 1.12736,-2.39804 1.30617,-3.26658 1.31993,-6.41183 0.0134,-3.24624 -0.13611,-3.96035 -1.39661,-6.63023 -1.29737,-2.74835 -2.63817,-4.22057 -16.45412,-18.06666 l -15.04166,-15.07446 -11.22594,11.23561 -11.22592,11.2356 15.28673,15.22303 c 8.40771,8.37265 15.9081,15.53711 16.6675,15.92103 1.79651,0.90819 5.51964,1.90341 7.25419,1.93907 0.75249,0.0161 2.3875,-0.18807 3.63333,-0.4525 z m -35.73947,-61.82087 c -2.83549,-2.87998 -5.25445,-5.22442 -5.37554,-5.20987 -0.12094,0.0161 -1.37428,1.39105 -2.78488,3.05899 -1.41061,1.6679 -4.54197,4.77338 -6.95863,6.90104 l -4.39388,3.86844 5.22856,5.24113 5.22854,5.24115 7.10562,-6.93226 7.10558,-6.93229 z m -56.919873,15.71716 c 22.865383,-3.92306 42.826843,-18.99851 53.611023,-40.48856 11.35173,-22.6209 9.80931,-49.648914 -4.03963,-70.787222 C 126.2028,47.513223 92.65229,35.479273 59.523215,46.010807 c -5.01249,1.593409 -14.789887,6.556052 -19.449181,9.871616 -5.235063,3.725293 -13.955668,12.455192 -17.621329,17.640059 -5.957307,8.426322 -10.350139,18.606186 -12.372191,28.671128 -1.3013662,6.47764 -1.3928068,19.22567 -0.1852854,25.82932 5.9625264,32.60745 32.3351274,57.14924 65.4437854,60.90055 4.979705,0.56421 14.623788,0.17107 20.488178,-0.835 z M 75.59139,154.71876 c -18.043658,-2.26641 -36.213358,-12.72428 -51.353617,-29.55738 -5.672386,-6.30661 -6.391367,-7.38458 -6.391367,-9.58254 0,-1.66505 0.315398,-2.22684 3.264064,-5.81334 7.039128,-8.5619 18.042544,-18.330591 26.016565,-23.097206 7.043221,-4.210231 15.234661,-7.486003 22.868808,-9.14531 2.88327,-0.626686 5.442405,-0.787667 12.396181,-0.779813 9.459686,0.0089 13.013941,0.530115 20.382206,2.978829 4.55269,1.512993 13.09645,5.674506 17.35647,8.45402 7.81222,5.097221 18.09626,14.56833 24.81927,22.85747 3.94364,4.86225 3.75045,5.44028 -5.09747,15.25225 -13.48506,14.95435 -28.71899,24.28688 -45.052916,27.60006 -5.143097,1.04324 -14.354111,1.44271 -19.208194,0.83296 z m 20.452804,-9.99349 c 8.632656,-2.17863 17.544606,-6.68006 25.577386,-12.91921 3.87427,-3.00922 12.54233,-11.43257 14.97615,-14.55341 l 1.39888,-1.79371 -6.75016,-6.81331 c -3.71259,-3.7473 -8.57753,-8.16875 -10.81098,-9.825499 -26.532769,-19.681202 -54.741089,-18.14841 -80.821419,4.391679 -3.888031,3.36027 -11.936199,11.89829 -11.936199,12.66269 0,0.21856 2.9334,3.35485 6.518685,6.96928 11.942034,12.03912 22.749158,18.68815 35.429429,21.79786 6.075056,1.48985 6.047016,1.48725 14.475881,1.34019 6.385625,-0.11142 8.133485,-0.29528 11.942347,-1.25656 z M 79.82731,135.63508 c -9.704044,-1.62853 -17.12284,-10.19569 -17.087734,-19.73275 0.02157,-5.83171 1.78841,-10.05193 5.941445,-14.19054 7.017874,-6.993477 17.015529,-7.974421 25.247653,-2.477215 10.480886,6.998875 11.850376,21.510075 2.876829,30.483575 -1.475388,1.47537 -3.683299,3.18966 -4.906459,3.80947 -3.74893,1.89974 -8.43489,2.7178 -12.071734,2.10746 z m 6.575941,-9.1984 c 2.37648,-0.69913 6.3133,-4.63595 7.01243,-7.01242 0.870746,-2.95979 0.654145,-6.13411 -0.588754,-8.6283 -2.798584,-5.61603 -9.640482,-8.01847 -15.020009,-5.27403 -4.022786,2.05229 -6.881615,7.06194 -6.3915,11.20013 0.867831,7.32746 7.809096,11.82655 14.987833,9.71462 z"
       id="path847"
       inkscape:export-xdpi="300"
       inkscape:export-ydpi="300" />
  </g>
</svg>
