<?xml version="1.0" encoding="UTF-8" standalone="no"?>
<!-- Created with Inkscape (http://www.inkscape.org/) -->

<svg
   width="210mm"
   height="297mm"
   viewBox="0 0 210 297"
   version="1.1"
   id="svg19472"
   inkscape:version="1.1.1 (1:1.1+202109281949+c3084ef5ed)"
   sodipodi:docname="civil.svg"
   xmlns:inkscape="http://www.inkscape.org/namespaces/inkscape"
   xmlns:sodipodi="http://sodipodi.sourceforge.net/DTD/sodipodi-0.dtd"
   xmlns:xlink="http://www.w3.org/1999/xlink"
   xmlns="http://www.w3.org/2000/svg"
   xmlns:svg="http://www.w3.org/2000/svg">
  <sodipodi:namedview
     id="namedview19474"
     pagecolor="#ffffff"
     bordercolor="#666666"
     borderopacity="1.0"
     inkscape:pageshadow="2"
     inkscape:pageopacity="0.0"
     inkscape:pagecheckerboard="0"
     inkscape:document-units="mm"
     showgrid="false"
     inkscape:zoom="0.64052329"
     inkscape:cx="396.55076"
     inkscape:cy="561.25984"
     inkscape:window-width="1920"
     inkscape:window-height="1022"
     inkscape:window-x="0"
     inkscape:window-y="27"
     inkscape:window-maximized="1"
     inkscape:current-layer="layer1" />
  <defs
     id="defs19469">
    <linearGradient
       inkscape:collect="always"
       xlink:href="#linearGradient1226"
       id="linearGradient1162"
       x1="226.47523"
       y1="125.81958"
       x2="268.31757"
       y2="190.48499"
       gradientUnits="userSpaceOnUse"
       gradientTransform="matrix(3.2748908,0,0,3.2748908,-670.19227,-331.98189)" />
    <linearGradient
       id="linearGradient1226">
      <stop
         offset="0"
         stop-color="#0f6"
         id="stop1222"
         style="stop-color:#3fc1c6;stop-opacity:1" />
      <stop
         offset="1"
         stop-color="#0082af"
         id="stop1224" />
    </linearGradient>
  </defs>
  <g
     inkscape:label="Layer 1"
     inkscape:groupmode="layer"
     id="layer1">
    <path
       style="fill:url(#linearGradient1162);fill-opacity:1;stroke-width:3.27489"
       d="m 67.695905,293.52755 c -2.801242,-1.38661 -4.229195,-3.67287 -4.229195,-6.77139 0,-3.113 0.808015,-4.54751 7.743579,-13.74831 8.298764,-11.00923 9.683,-11.72578 22.69787,-11.74976 l 7.504121,-0.0133 v -5.05701 -5.05702 L 98.155763,250.4772 C 73.957497,245.62095 54.8229,235.71948 37.520342,219.10072 18.389707,200.72609 6.2744122,176.98962 2.2287759,149.95687 1.2570838,143.4642 1.2412004,124.95627 2.2025769,118.2412 5.9482993,92.050231 17.453089,68.921235 35.990313,50.315108 52.418836,33.825476 72.497387,22.92409 95.407546,18.055245 l 5.604444,-1.191007 0.65232,-2.583239 c 2.45492,-9.7213796 14.91125,-12.7933893 21.75759,-5.3659415 3.24974,3.5255155 3.65544,5.6193475 3.35559,17.3186685 -0.23513,9.17808 -0.36571,10.178694 -1.71222,13.119744 -2.01725,4.406263 -3.14838,4.990771 -11.34697,5.863463 C 89.90454,47.751755 70.698718,57.042913 54.975345,73.634994 33.359429,96.445128 25.129695,128.172 32.900879,158.73535 c 12.929268,50.84933 67.846691,79.89899 119.200941,63.05367 11.83424,-3.88189 22.25791,-10.04363 33.18643,-19.61759 4.74935,-4.16064 8.23968,-6.02556 11.3129,-6.04442 6.99292,-0.041 12.97025,5.88645 12.98219,12.87821 0.01,4.69343 -3.34389,8.46562 -16.6193,18.70323 -16.99758,13.10805 -38.86565,21.53177 -62.80833,24.1943 l -3.25653,0.36207 v 4.43973 4.43971 l 11.46863,0.20959 c 12.46631,0.22827 14.2839,0.61402 17.6348,3.74369 2.77682,2.59352 13.21155,16.87929 13.93887,19.08322 1.31091,3.97195 -0.59285,7.98752 -4.53453,9.56464 -2.03717,0.81513 -7.32041,0.91392 -48.85515,0.91353 -45.400163,-4.3e-4 -46.628411,-0.0261 -48.854813,-1.13097 z M 109.8261,208.32921 C 90.573801,204.93568 72.904062,193.95792 61.371044,178.22535 54.627356,169.0261 49.629022,157.02051 47.839948,145.72473 c -1.132064,-7.14762 -0.82691,-20.7181 0.61175,-27.20111 2.821482,-12.71499 8.908619,-24.801399 17.232017,-34.215494 28.913652,-32.702413 78.927745,-34.284112 109.638305,-3.467325 8.41583,8.444958 14.67764,18.536509 18.40476,29.661149 4.85969,14.50517 4.82435,32.79474 -0.0914,47.31141 -8.52939,25.18807 -29.76029,44.1194 -55.97658,49.91357 -5.77836,1.27708 -22.01165,1.62838 -27.83271,0.60228 z m 48.47736,-52.65752 c 15.46423,-15.61799 24.5404,-32.19874 23.25062,-42.47534 -2.43819,-19.427243 -20.16662,-32.458856 -38.9118,-28.602825 -4.09877,0.843149 -11.50689,4.510374 -14.68062,7.267307 -3.34007,2.901454 -7.5366,9.046668 -8.96587,13.129308 -2.95569,8.44263 -2.62648,15.04962 1.15149,23.11161 5.40602,11.5362 18.97772,28.30862 27.62154,34.13573 1.29623,0.87384 1.56019,0.87957 3.12975,0.0678 0.9428,-0.48753 4.27494,-3.47273 7.40489,-6.63372 z m -15.59251,-22.01606 c -3.94288,-1.66527 -6.76202,-3.78983 -8.64267,-6.51315 -6.90341,-9.9966 -3.37432,-23.24384 7.55498,-28.359376 2.5154,-1.177398 3.98895,-1.461809 7.65597,-1.477818 4.01095,-0.01964 4.98261,0.197463 8.32385,1.841624 6.80925,3.35068 10.63871,9.40807 10.63871,16.82813 0,7.18406 -4.18202,13.93525 -10.56738,17.05932 -4.53045,2.21656 -10.5907,2.46813 -14.96346,0.62127 z"
       id="path919" />
  </g>
</svg>
