<?xml version="1.0" encoding="UTF-8" standalone="no"?>
<svg
   data-name="Layer 1"
   id="Layer_1"
   viewBox="0 0 221.28579 221.47421"
   version="1.1"
   sodipodi:docname="ckt.svg"
   width="221.2858"
   height="221.47421"
   inkscape:version="1.1-dev (7bb339f916, 2021-01-15, custom)"
   xmlns:inkscape="http://www.inkscape.org/namespaces/inkscape"
   xmlns:sodipodi="http://sodipodi.sourceforge.net/DTD/sodipodi-0.dtd"
   xmlns:xlink="http://www.w3.org/1999/xlink"
   xmlns="http://www.w3.org/2000/svg"
   xmlns:svg="http://www.w3.org/2000/svg"
   xmlns:rdf="http://www.w3.org/1999/02/22-rdf-syntax-ns#"
   xmlns:cc="http://creativecommons.org/ns#"
   xmlns:dc="http://purl.org/dc/elements/1.1/">
  <metadata
     id="metadata37">
    <rdf:RDF>
      <cc:Work
         rdf:about="">
        <dc:format>image/svg+xml</dc:format>
        <dc:type
           rdf:resource="http://purl.org/dc/dcmitype/StillImage" />
      </cc:Work>
    </rdf:RDF>
  </metadata>
  <sodipodi:namedview
     pagecolor="#ffffff"
     bordercolor="#666666"
     borderopacity="1"
     objecttolerance="10"
     gridtolerance="10"
     guidetolerance="10"
     inkscape:pageopacity="0"
     inkscape:pageshadow="2"
     inkscape:window-width="1916"
     inkscape:window-height="1050"
     id="namedview35"
     showgrid="false"
     inkscape:zoom="0.8691521"
     inkscape:cx="132.88813"
     inkscape:cy="-50.048777"
     inkscape:window-x="0"
     inkscape:window-y="26"
     inkscape:window-maximized="1"
     inkscape:current-layer="g32"
     inkscape:pagecheckerboard="0"
     fit-margin-top="0"
     fit-margin-left="0"
     fit-margin-right="0"
     fit-margin-bottom="0" />
  <defs
     id="defs4">
    <linearGradient
       inkscape:collect="always"
       id="linearGradient894">
      <stop
         style="stop-color:#00ff66;stop-opacity:1"
         offset="0"
         id="stop890" />
      <stop
         style="stop-color:#0082af;stop-opacity:1"
         offset="1"
         id="stop892" />
    </linearGradient>
    <style
       id="style2">
      .cls-1, .cls-2, .cls-3 {
        fill: none;
        stroke: #353535;
        stroke-width: 2px;
      }

      .cls-1, .cls-2 {
        stroke-linecap: round;
      }

      .cls-1 {
        stroke-miterlimit: 10;
      }

      .cls-2, .cls-3 {
        stroke-linejoin: round;
      }
    </style>
    <linearGradient
       inkscape:collect="always"
       xlink:href="#linearGradient894"
       id="linearGradient896"
       x1="1.5254236"
       y1="0.74440819"
       x2="39.589581"
       y2="31.964746"
       gradientUnits="userSpaceOnUse" />
    <clipPath
       clipPathUnits="userSpaceOnUse"
       id="clipPath1044">
      <rect
         style="opacity:0.256562;fill:#008cff;stroke-width:0.499999;stroke-linecap:round;stroke-linejoin:round"
         id="rect1046"
         width="30.993855"
         height="49.731895"
         x="145.23416"
         y="154.06508" />
    </clipPath>
    <linearGradient
       inkscape:collect="always"
       xlink:href="#linearGradient894"
       id="linearGradient834"
       gradientUnits="userSpaceOnUse"
       x1="1.5254236"
       y1="0.74440819"
       x2="39.589581"
       y2="31.964746" />
    <linearGradient
       inkscape:collect="always"
       xlink:href="#linearGradient894"
       id="linearGradient10088"
       x1="-626.27795"
       y1="371.59283"
       x2="-403.95673"
       y2="371.59283"
       gradientUnits="userSpaceOnUse" />
  </defs>
  <title
     id="title6" />
  <g
     id="g842"
     style="stroke:url(#linearGradient896)"
     transform="translate(627.24255,-246.83835)">
    <g
       transform="translate(-1.5000161,-14)"
       id="g32"
       style="stroke:url(#linearGradient834)">
      <path
         style="fill:url(#linearGradient10088);fill-opacity:1;stroke:none"
         d="m -617.68863,479.95832 c -4.9817,-2.63031 -6.8704,-6.67476 -7.5161,-16.09477 l -0.5378,-7.84645 h 23.0937 c 12.7015,0 25.3048,-0.4742 28.0072,-1.05377 3.7426,-0.80265 6.6451,-2.52214 12.1797,-7.2156 l 7.2662,-6.16184 15.7892,-0.40183 15.7893,-0.40183 1.9774,3.86744 c 5.3081,10.38155 15.2704,15.52909 25.8171,13.33962 10.9659,-2.27652 18.366,-11.20593 18.366,-22.16159 0,-10.23672 -4.3146,-17.08491 -13.5,-21.42731 -6.4479,-3.04824 -12.5445,-3.05012 -19,-0.006 -5.5803,2.63153 -8.3763,5.34994 -11.1346,10.82552 l -1.8654,3.70294 -17,0.45822 c -9.35,0.25202 -18.1861,0.91752 -19.6358,1.47889 -1.4497,0.56137 -5.411,3.49694 -8.8029,6.5235 -7.5248,6.71418 -8.3701,6.86298 -36.5613,6.43625 l -20,-0.30261 v -19.63449 -19.63449 l 48.8188,-0.62543 c 41.7872,-0.53535 49.2771,-0.8547 52,-2.21715 4.0269,-2.01486 22.2985,-19.89681 24.409,-23.88844 0.9707,-1.83575 1.8423,-7.00164 2.2461,-13.31131 l 0.6598,-10.31131 11.186,-11.18869 11.186,-11.18869 18.2472,-0.5 c 27.2099,-0.74559 25.7471,1.52131 25.7471,-39.90113 V 261.0171 l 6.25,0.006 c 9.4602,0.008 13.3361,1.44037 16.7847,6.20105 l 2.9653,4.09345 v 99.98192 c 0,98.52748 -0.029,100.02942 -2.0176,103.2465 -3.1271,5.05968 -6.003,6.38455 -15.4324,7.10935 l -8.55,0.6572 v -21.18736 c 0,-24.72367 0.056,-24.53012 -10.4553,-35.98431 l -6.5447,-7.13168 v -12.0206 c 0,-11.89197 0.027,-12.03074 2.4923,-12.96818 7.2039,-2.73891 14.5077,-13.32237 14.5077,-21.02213 0,-13.34584 -13.0254,-25.34568 -25.6356,-23.61725 -20.1271,2.75871 -28.0715,27.15029 -13.119,40.27876 1.8497,1.62411 4.8013,3.5486 6.5589,4.27664 l 3.1957,1.3237 v 12.4108 c 0,14.65352 0.9339,17.59719 7.8831,24.84656 9.6709,10.08863 9.1169,8.22705 9.1169,30.63486 v 19.86514 l -85.75,-0.0442 c -83.3459,-0.043 -85.8546,-0.0994 -89.4819,-2.01458 z m 116.7319,-33.4327 c -0.55,-0.18347 -2.2515,-0.61002 -3.781,-0.94789 -6.4588,-1.42669 -8.8766,-12.13573 -3.969,-17.57958 4.9755,-5.51922 15.2797,-4.60085 18.1114,1.61419 1.6401,3.59963 1.4004,9.58599 -0.4921,12.28789 -1.3019,1.85877 -7.3236,5.39153 -8.5872,5.03792 -0.1551,-0.0434 -0.7321,-0.22906 -1.2821,-0.41253 z m -124.0543,-55.78931 c -0.2703,-0.70444 -0.3687,-9.81694 -0.2186,-20.25 l 0.2729,-18.96921 15.7343,-0.5 15.7344,-0.5 3.2656,-3.26776 3.2657,-3.26777 0.3374,-20.98223 0.3374,-20.98224 h 21.7004 21.7003 l 3.437,-2.8693 c 3.2678,-2.72809 3.4712,-3.28171 4.1327,-11.25 0.3827,-4.60938 0.7315,-12.5432 0.7753,-17.6307 l 0.08,-9.25 h 20 20 v 11.4349 c 0,6.2892 -0.474,12.6815 -1.0532,14.20511 -0.5793,1.52362 -10.3056,12.08987 -21.6139,23.48056 l -20.5607,20.71033 -4.0118,-1.41545 c -15.1266,-5.33697 -30.8757,5.58528 -31.0258,21.51687 -0.1995,21.17443 26.1504,31.3658 40.1057,15.51174 5.8876,-6.68869 7.6556,-15.47766 4.7161,-23.44406 l -1.2915,-3.5 21.2318,-21.53717 c 11.6775,-11.84545 22.0483,-23.09545 23.0462,-25 1.425,-2.71987 1.9103,-6.52021 2.2616,-17.71283 l 0.4474,-14.25 h 19.8741 19.874 v 29 29 h -14.5572 c -21.3313,0 -21.6736,0.13316 -35.7923,13.92491 -6.5173,6.3663 -12.7775,13.37509 -13.9116,15.57509 -1.4611,2.83446 -2.2334,6.76815 -2.6504,13.5 -0.6895,11.13098 -1.4414,12.50933 -12.1592,22.29128 l -7.0112,6.39898 -15.709,0.65154 c -8.64,0.35834 -30.2357,0.65304 -47.9905,0.65487 -25.319,0.003 -32.3874,-0.27291 -32.7729,-1.27746 z m 167.5543,-8.42544 c -2.4398,-0.89188 -6.1435,-4.61579 -7.1283,-7.16717 -2.0848,-5.40157 2.1457,-13.3399 7.8755,-14.778 4.1022,-1.02959 10.1281,1.39896 12.2969,4.95587 2.3452,3.84629 2.4633,6.82399 0.4397,11.08834 -2.4272,5.11498 -8.438,7.7455 -13.4838,5.90096 z m -95.3574,-20.32198 c -4.049,-1.21335 -6.4876,-3.72244 -7.7664,-7.99073 -2.1604,-7.21057 3.493,-13.98106 11.6741,-13.98106 5.3225,0 10.4497,5.28199 10.4497,10.76514 0,4.75852 -2.8958,8.87554 -7.6358,10.85604 -1.815,0.75835 -3.4269,1.34014 -3.5821,1.29287 -0.1551,-0.0473 -1.568,-0.47129 -3.1395,-0.94226 z m -72.047,-57.22179 c 0.7413,-37.45083 0.8826,-38.32903 6.6713,-41.47093 2.8637,-1.55427 7.1468,-1.79496 37.4831,-2.1063 l 34.25,-0.35152 v 14.50621 14.5062 l -22.5782,0.33317 -22.5783,0.33317 -3.4217,3.73532 -3.4218,3.73531 v 20.51469 20.51468 h -13.5412 -13.5412 z"
         id="path10060" />
    </g>
  </g>
</svg>
