<?xml version="1.0" encoding="UTF-8" standalone="no"?>
<svg
   data-name="Layer 1"
   id="Layer_1"
   viewBox="0 0 396.00017 234.9326"
   version="1.1"
   sodipodi:docname="CM.svg"
   width="396.00018"
   height="234.9326"
   inkscape:version="1.1-dev (7bb339f916, 2021-01-15, custom)"
   xmlns:inkscape="http://www.inkscape.org/namespaces/inkscape"
   xmlns:sodipodi="http://sodipodi.sourceforge.net/DTD/sodipodi-0.dtd"
   xmlns:xlink="http://www.w3.org/1999/xlink"
   xmlns="http://www.w3.org/2000/svg"
   xmlns:svg="http://www.w3.org/2000/svg"
   xmlns:rdf="http://www.w3.org/1999/02/22-rdf-syntax-ns#"
   xmlns:cc="http://creativecommons.org/ns#"
   xmlns:dc="http://purl.org/dc/elements/1.1/">
  <metadata
     id="metadata37">
    <rdf:RDF>
      <cc:Work
         rdf:about="">
        <dc:format>image/svg+xml</dc:format>
        <dc:type
           rdf:resource="http://purl.org/dc/dcmitype/StillImage" />
      </cc:Work>
    </rdf:RDF>
  </metadata>
  <sodipodi:namedview
     pagecolor="#ffffff"
     bordercolor="#666666"
     borderopacity="1"
     objecttolerance="10"
     gridtolerance="10"
     guidetolerance="10"
     inkscape:pageopacity="0"
     inkscape:pageshadow="2"
     inkscape:window-width="1916"
     inkscape:window-height="1050"
     id="namedview35"
     showgrid="false"
     inkscape:zoom="0.8691521"
     inkscape:cx="209.97476"
     inkscape:cy="243.34061"
     inkscape:window-x="0"
     inkscape:window-y="26"
     inkscape:window-maximized="1"
     inkscape:current-layer="g32"
     inkscape:pagecheckerboard="0"
     fit-margin-top="0"
     fit-margin-left="0"
     fit-margin-right="0"
     fit-margin-bottom="0" />
  <defs
     id="defs4">
    <linearGradient
       inkscape:collect="always"
       id="linearGradient894">
      <stop
         style="stop-color:#00ff66;stop-opacity:1"
         offset="0"
         id="stop890" />
      <stop
         style="stop-color:#0082af;stop-opacity:1"
         offset="1"
         id="stop892" />
    </linearGradient>
    <style
       id="style2">
      .cls-1, .cls-2, .cls-3 {
        fill: none;
        stroke: #353535;
        stroke-width: 2px;
      }

      .cls-1, .cls-2 {
        stroke-linecap: round;
      }

      .cls-1 {
        stroke-miterlimit: 10;
      }

      .cls-2, .cls-3 {
        stroke-linejoin: round;
      }
    </style>
    <linearGradient
       inkscape:collect="always"
       xlink:href="#linearGradient894"
       id="linearGradient896"
       x1="1.5254236"
       y1="0.74440819"
       x2="39.589581"
       y2="31.964746"
       gradientUnits="userSpaceOnUse" />
    <clipPath
       clipPathUnits="userSpaceOnUse"
       id="clipPath1044">
      <rect
         style="opacity:0.256562;fill:#008cff;stroke-width:0.499999;stroke-linecap:round;stroke-linejoin:round"
         id="rect1046"
         width="30.993855"
         height="49.731895"
         x="145.23416"
         y="154.06508" />
    </clipPath>
    <linearGradient
       inkscape:collect="always"
       xlink:href="#linearGradient894"
       id="linearGradient834"
       gradientUnits="userSpaceOnUse"
       x1="1.5254236"
       y1="0.74440819"
       x2="39.589581"
       y2="31.964746" />
    <linearGradient
       inkscape:collect="always"
       xlink:href="#linearGradient894"
       id="linearGradient1280"
       x1="-703.43713"
       y1="84.804726"
       x2="-306.43323"
       y2="84.804726"
       gradientUnits="userSpaceOnUse" />
  </defs>
  <title
     id="title6" />
  <g
     id="g842"
     style="stroke:url(#linearGradient896)"
     transform="translate(704.43529,46.79066)">
    <g
       transform="translate(-1.5000161,-14)"
       id="g32"
       style="stroke:url(#linearGradient834)">
      <path
         style="fill:url(#linearGradient1280);fill-opacity:1;stroke:none"
         d="m -557.75223,201.69297 c 0.284,-0.28401 4.5215,-1.66777 9.41667,-3.07504 17.85906,-5.13412 30.70576,-13.36819 35.70326,-22.88397 3.0685,-5.84262 2.8276,-14.45349 -0.5916,-21.14797 -4.9185,-9.63006 -15.4627,-16.36632 -25.6429,-16.38223 -11.27619,-0.0176 -20.85473,-8.32272 -23.63685,-20.49442 -0.64303,-2.81326 -0.50524,-2.73686 2.2137,1.22747 5.41599,7.89676 13.51683,12.26801 22.75385,12.27811 6.964,0.008 11.5826,1.44448 17.5489,5.45945 2.7785,1.86985 5.0519,2.97116 5.0519,2.44737 0,-0.5238 -3.2625,-4.22441 -7.25,-8.22359 -5.841,-5.85815 -8.3188,-7.60671 -12.75,-8.99752 -3.025,-0.94946 -6.1915,-2.28092 -7.0367,-2.95879 -2.5415,-2.03841 -5.78647,-7.16609 -6.51397,-10.29349 -0.64789,-2.78513 -0.51878,-2.72034 2.46597,1.2375 3.2365,4.29172 9.9938,8.32349 13.9501,8.32349 2.6414,0 7.3111,2.24454 12.0387,5.78646 l 3.4041,2.55035 -2.9041,-5.36959 c -3.5648,-6.59127 -7.859,-11.01912 -13.0007,-13.4052 -9.5549,-4.43415 -14.04618,-10.35826 -15.07203,-19.88041 l -0.55824,-5.18161 3.19847,6.26396 c 3.5073,6.86885 6.9315,9.98561 14.5295,13.22502 9.3612,3.99114 15.6325,12.16161 22.218,28.94617 l 3.3605,8.56485 -0.4784,-11.5 c -0.5908,-14.20277 -2.2104,-19.09951 -8.8125,-26.64408 -2.7924,-3.19101 -5.6872,-7.26205 -6.4329,-9.04676 -1.7622,-4.21753 -1.6797,-14.11857 0.1442,-17.30916 1.3845,-2.42181 1.4309,-2.34362 1.4866,2.5 0.078,6.83306 2.662,11.98211 9.8879,19.70666 3.3687,3.60112 6.7604,8.06854 7.5372,9.9276 1.6083,3.84933 3.4237,13.33217 3.7551,19.61574 0.3008,5.70046 1.4255,5.3809 2.2231,-0.63158 1.0832,-8.16549 3.4426,-14.65489 7.3697,-20.27007 3.6748,-5.25452 3.7358,-5.49459 3.4745,-13.68387 -0.2248,-7.04678 0.074,-8.94072 1.9341,-12.25 2.7288,-4.8552 3.9972,-5.06341 2.5729,-0.42233 -0.8432,2.74724 -0.6845,5.18818 0.7442,11.44322 l 1.8159,7.95108 -5.6714,11.30677 c -4.5254,9.02189 -5.7944,12.62031 -6.2794,17.80678 l -0.608,6.5 4.0254,-3.85193 c 4.4559,-4.26397 8.3742,-10.89272 10.305,-17.4337 0.8503,-2.88024 1.5327,-3.86403 2.0809,-3 2.9559,4.65869 -2.0449,16.92111 -12.347,30.27576 l -2.3067,2.99014 3.1746,-2.25456 c 5.0167,-3.56274 14.6429,-14.56886 17.1728,-19.6346 1.27,-2.54293 2.6812,-7.25601 3.136,-10.47352 1.2224,-8.6482 5.0926,-14.60031 11.7009,-17.9954 4.0462,-2.07878 4.4102,-1.144 0.7916,2.03313 -5.0461,4.43056 -7.3107,9.47616 -8.326,18.55082 -0.8441,7.54497 -3.4967,14.64858 -6.9269,18.54999 -4.4438,5.05425 5.0147,1.14095 10.6781,-4.41788 4.0918,-4.01633 7.047,-10.13267 7.077,-14.64727 0.013,-1.94683 0.4336,-3.0546 1.0219,-2.69098 2.9062,1.79612 0.1919,14.19825 -4.5295,20.69663 -2.8661,3.94466 -5.3253,5.67184 -15.3598,10.78773 -16.9521,8.64272 -23.1191,15.24434 -23.1051,24.73352 0.011,7.33386 1.9066,11.5147 7.8379,17.28547 6.6554,6.47516 15.387,11.33656 27.1565,15.11965 l 8.5,2.73215 -54.9166,0.0724 c -30.2042,0.0398 -54.68434,-0.15994 -54.40033,-0.44394 z m -115.9077,-22.13746 c -6.10496,-2.16175 -12.54927,-9.69775 -14.6279,-17.10594 -2.06059,-7.3439 -2.09857,-18.68696 -0.10986,-32.81616 1.89735,-13.48018 2.08764,-23.99962 0.52004,-28.74947 -1.53187,-4.64163 -6.15873,-8.50723 -11.13501,-9.30297 -3.86972,-0.61879 -3.92261,-0.68619 -3.92261,-4.99944 0,-4.26529 0.0795,-4.37228 3.25,-4.37593 4.61164,-0.005 9.59868,-3.38984 11.42087,-7.75098 1.95854,-4.68744 1.90656,-16.99766 -0.13193,-31.24528 -1.99617,-13.95181 -1.96192,-26.46064 0.0898,-32.81355 3.33685,-10.33197 12.52385,-17.15696 23.12122,-17.17668 l 5.25004,-0.01 v 4.37617 4.37617 l -5.54147,0.45954 c -13.52996,1.12201 -17.64447,12.16624 -14.06295,37.74796 1.91222,13.65835 2.07621,28.72914 0.37458,34.42414 -0.70441,2.35754 -3.00152,5.89033 -5.37675,8.26908 l -4.14691,4.15307 2.96782,2.1942 c 1.6323,1.20681 4.04744,4.51294 5.36698,7.34694 2.05924,4.42267 2.39605,6.64042 2.37722,15.65273 -0.0121,5.775 -0.67392,15 -1.47079,20.5 -2.69438,18.59673 -1.35858,29.37537 4.31404,34.81008 2.99693,2.87124 7.8216,4.68992 12.44163,4.68992 2.60042,0 2.7566,0.25496 2.7566,4.5 v 4.5 l -4.75,-0.0789 c -2.6125,-0.0434 -6.6511,-0.75212 -8.97466,-1.57488 z m 323.72463,-2.70688 v -4.36071 l 5.2358,-0.6201 c 12.9077,-1.52873 17.2543,-11.01378 14.8441,-32.39283 -0.7295,-6.47111 -1.5404,-17.47791 -1.8021,-24.45957 -0.4477,-11.94488 -0.3285,-13.01545 2.0189,-18.14291 1.372,-2.99695 3.8361,-6.44081 5.4757,-7.65302 l 2.9811,-2.20402 -4.1469,-4.15307 c -2.3752,-2.37875 -4.6723,-5.91154 -5.3767,-8.26908 -1.7017,-5.695 -1.5377,-20.76579 0.3745,-34.42414 3.5816,-25.58172 -0.5329,-36.62595 -14.0629,-37.74796 l -5.5415,-0.45954 v -4.37617 -4.37617 l 5.25,0.01 c 10.5974,0.0197 19.7844,6.84471 23.1212,17.17668 2.0518,6.35291 2.0861,18.86174 0.09,32.81355 -2.0384,14.24762 -2.0904,26.55784 -0.1319,31.24528 1.8222,4.36114 6.8092,7.74568 11.4209,7.75098 3.1705,0.004 3.25,0.11064 3.25,4.37593 0,4.31325 -0.053,4.38065 -3.9226,4.99944 -4.9709,0.79488 -9.6028,4.66014 -11.1301,9.28796 -1.6034,4.85846 -1.3954,14.77386 0.6197,29.53363 1.9593,14.35149 1.5361,29.28435 -0.9954,35.12428 -4.0782,9.40767 -13.3804,15.68227 -23.2497,15.68227 h -4.3219 z m -80.3313,-52.45294 c -1.8351,-2.02768 -0.5002,-4.44266 1.9384,-3.50688 2.566,0.98467 14.6982,-10.16911 14.0237,-12.8927 -0.6232,-2.51612 1.9566,-4.37414 3.8692,-2.78677 2.3704,1.96722 1.7602,5.37658 -1.5257,8.52465 -1.6642,1.59437 -2.8243,3.42372 -2.5782,4.06524 0.5512,1.43635 -1.3019,3.41011 -3.2017,3.41011 -0.7731,0 -2.7426,1.125 -4.3767,2.5 -3.5209,2.96261 -5.9072,3.16359 -8.149,0.68635 z m -160.51347,-3.28627 c -1.99266,-1.81185 -3.9641,-2.80365 -4.87675,-2.45344 -1.9089,0.73252 -4.27845,-1.13552 -4.27845,-3.37292 0,-0.92476 -1.575,-3.20794 -3.5,-5.07372 -3.9627,-3.8408 -4.57674,-7.71559 -1.64338,-10.37024 1.57738,-1.42751 2.03118,-1.46988 3.01725,-0.28174 0.63835,0.76917 0.91747,2.03216 0.62027,2.80666 -0.30736,0.80096 0.97883,2.88065 2.98274,4.82292 1.93772,1.8781 3.52312,4.00146 3.52312,4.71857 0,0.71711 0.72809,1.30383 1.61798,1.30383 0.8899,0 3.18021,1.37165 5.08958,3.0481 2.82008,2.47606 3.74571,2.82061 4.93221,1.8359 1.16667,-0.96825 1.80269,-0.86432 3.16042,0.51642 1.60147,1.6286 1.56323,1.84058 -0.66097,3.66409 -3.29501,2.70141 -6.09103,2.37531 -9.98402,-1.16443 z m 153.34067,-4.2661 c -1.8136,-2.76785 -1.2141,-4.769 2.4115,-8.05016 1.1509,-1.04159 2.0926,-2.66895 2.0926,-3.61636 0,-1.87034 2.333,-4.30111 3.249,-3.38513 0.3108,0.31073 2.4816,-0.82342 4.8241,-2.52034 3.8252,-2.77093 4.4715,-2.94432 6.3431,-1.70168 2.7219,1.80727 2.7059,4.2026 -0.026,3.92628 -1.1639,-0.11772 -3.1478,0.89119 -4.4243,2.25 -1.2729,1.35487 -3.1359,2.46341 -4.14,2.46341 -1.0041,0 -1.8257,0.59656 -1.8257,1.32569 0,0.72912 -1.1292,2.38649 -2.5093,3.68304 -1.5037,1.41273 -2.2961,3.02887 -1.9774,4.03313 0.2925,0.92168 -0.1232,2.21942 -0.9238,2.88388 -1.1833,0.98209 -1.7621,0.74042 -3.0936,-1.29176 z m -139.156,-2.88398 c -0.42799,-0.6875 -0.65613,-2.19541 -0.50699,-3.3509 0.17435,-1.35078 -0.65628,-2.70859 -2.32639,-3.80289 -1.42866,-0.93609 -3.0993,-2.80319 -3.71254,-4.1491 -0.61324,-1.34591 -1.68322,-2.44711 -2.37774,-2.44711 -0.69452,0 -2.65393,-1.17059 -4.35425,-2.60132 -1.80919,-1.52233 -3.74125,-2.35199 -4.65798,-2.00021 -0.86156,0.33062 -2.45512,-0.0213 -3.54123,-0.78205 -1.93058,-1.35223 -1.91457,-1.4305 0.71611,-3.49979 3.60629,-2.83671 5.28903,-2.67419 9.66581,0.93352 2.0352,1.67758 4.27523,2.95661 4.97784,2.84228 2.4298,-0.39537 4.85022,1.30304 4.30502,3.02083 -0.34398,1.0838 0.88274,3.05793 3.4702,5.58452 4.37142,4.26858 4.80449,5.91187 2.44557,9.27971 -1.75897,2.51128 -2.96723,2.79764 -4.10343,0.97251 z m 163.139,-24.14179 c -1.6113,-1.17823 -1.7,-1.63686 -0.5778,-2.98899 0.729,-0.87846 1.7632,-1.32672 2.2981,-0.99612 1.0952,0.67687 8.8008,-6.92304 8.8008,-8.68009 0,-0.62385 0.942,-2.4571 2.0932,-4.07389 1.5755,-2.21249 1.8198,-3.26911 0.9877,-4.27169 -0.8289,-0.99874 -0.6984,-1.66995 0.5214,-2.68232 1.4003,-1.16215 1.8896,-1.02589 3.5123,0.97811 2.4545,3.03109 2.3813,4.04614 -0.5814,8.06175 -1.3567,1.83894 -2.2276,3.73039 -1.9354,4.20323 0.9189,1.48679 -0.7143,5.01105 -2.0795,4.4872 -0.7155,-0.27459 -2.7211,1.26786 -4.4568,3.42767 -3.3462,4.16397 -5.4893,4.797 -8.5826,2.53514 z m -164.63639,-3.35821 c -0.80713,-0.9625 -2.23725,-2.9875 -3.17805,-4.5 -0.94079,-1.5125 -2.37516,-2.75 -3.18748,-2.75 -1.47908,0 -1.85428,-1.02332 -1.53842,-4.19585 0.0929,-0.93271 -0.53032,-3.04787 -1.38485,-4.70034 -2.08105,-4.0243 -1.95974,-5.69775 0.59848,-8.25597 2.06237,-2.06237 2.20768,-2.07622 3.48305,-0.33204 0.91885,1.2566 1.01589,2.19967 0.31344,3.04608 -0.95901,1.15553 0.52036,5.98756 3.19571,10.43812 3.68785,6.13487 5.28426,8 6.84743,8 2.5859,0 3.30656,2.76996 1.03671,3.98475 -2.74004,1.46642 -4.51719,1.25534 -6.18602,-0.73475 z M -422.2803,83.3806 c -2.1922,-2.42231 -2.0871,-4.35215 0.4096,-7.52623 1.1355,-1.44358 1.9664,-3.41677 1.8463,-4.38486 -0.3206,-2.58587 1.0707,-5.20448 2.4783,-4.66434 0.6729,0.25825 2.6819,-1.34517 4.4643,-3.56314 3.3638,-4.18574 4.9288,-4.75479 8.225,-2.9907 1.5751,0.84299 1.744,1.42128 0.8841,3.02801 -0.5846,1.09231 -1.5404,1.6909 -2.124,1.33021 -1.0851,-0.67063 -8.8386,7.06812 -8.8386,8.8218 0,0.53309 -0.9553,2.31089 -2.1229,3.95066 -1.543,2.16693 -1.8227,3.2817 -1.0238,4.08058 0.7986,0.7986 0.7987,1.46115 5e-4,2.42296 -1.4636,1.76348 -2.2292,1.67141 -4.1988,-0.50495 z m -144.31914,-1.73848 c -0.33077,-0.86197 -0.11599,-2.05262 0.47728,-2.64589 0.77157,-0.77157 0.5139,-2.18574 -0.90504,-4.96708 -1.09104,-2.13862 -1.71513,-4.32297 -1.38687,-4.85411 0.32826,-0.53113 0.12592,-0.9657 -0.44964,-0.9657 -0.57556,0 -2.17448,-1.78689 -3.55316,-3.97086 -1.5396,-2.43888 -3.03788,-3.76703 -3.88351,-3.44253 -1.81724,0.69734 -3.0878,-2.675 -1.41876,-3.76571 2.58789,-1.69117 6.19868,-0.35157 8.56902,3.1791 1.29237,1.925 3.27072,3.84198 4.39633,4.25996 1.48223,0.5504 1.89242,1.34942 1.48755,2.89766 -0.31063,1.18786 0.3052,3.8317 1.38598,5.9502 2.42559,4.75455 2.42098,5.41619 -0.055,7.89218 -2.40572,2.40572 -3.85546,2.54024 -4.66417,0.43278 z m 114.16904,0.57514 c -0.9262,-1.49867 1.1137,-4.49174 3.0672,-4.50034 1.1021,-0.005 2.2119,-1.42229 3.0858,-3.94127 0.7505,-2.16352 2.0454,-4.68595 2.8775,-5.60538 0.8321,-0.91943 1.2643,-2.31931 0.9606,-3.11083 -0.3037,-0.79153 0.1528,-3.43744 1.0145,-5.8798 1.4355,-4.06866 1.4303,-4.54046 -0.063,-5.63204 -1.067,-0.78018 -1.4022,-1.90702 -0.9712,-3.26482 0.7355,-2.31727 1.7591,-2.55278 4.5661,-1.05052 3.5822,1.91715 4.2352,4.62408 2.4279,10.06538 -1.2813,3.85755 -1.3899,5.30414 -0.4805,6.39992 1.5462,1.86307 0.4364,5.16695 -1.9448,5.78966 -1.1423,0.2987 -2.2956,1.96852 -2.9189,4.22624 -0.5669,2.05284 -1.7969,4.57921 -2.7336,5.61416 -1.8159,2.00662 -7.8259,2.60819 -8.888,0.88964 z m -165.52727,-3.53104 c -1.87811,-1.93771 -3.95848,-3.31446 -4.62306,-3.05944 -1.62055,0.62187 -3.5272,-1.80391 -2.83523,-3.60717 0.3046,-0.79378 -0.7871,-3.13056 -2.426,-5.19285 -3.06162,-3.85255 -3.11773,-5.57051 -0.28952,-8.86389 1.84499,-2.14844 4.55607,-0.46271 3.68248,2.28974 -1.06425,3.35315 10.48339,17.52901 13.39079,16.4385 0.75738,-0.28408 1.9476,0.26376 2.64494,1.21743 1.05025,1.4363 0.98552,1.9488 -0.37705,2.98557 -2.80432,2.13377 -5.61547,1.45673 -9.16735,-2.20789 z m 154.89097,0.0133 c -3.7022,-2.01158 -4.1529,-4.00021 -2.3287,-10.27521 1.1287,-3.88284 1.2824,-5.79266 0.5268,-6.54825 -1.7238,-1.72386 -1.233,-3.63379 1.2213,-4.75204 1.4343,-0.65353 2.9399,-2.87805 4.0354,-5.9623 0.961,-2.7059 2.6578,-5.40709 3.7706,-6.00266 2.7848,-1.49035 8.2287,-0.23285 7.4766,1.72705 -0.3138,0.81776 -0.5706,1.86873 -0.5706,2.3355 0,0.46676 -0.9696,0.99246 -2.1547,1.16821 -1.4969,0.22198 -2.5714,1.54083 -3.5195,4.31955 -0.7506,2.2 -2.0387,4.50533 -2.8626,5.12294 -0.8239,0.61762 -1.256,1.75337 -0.9603,2.52389 0.2956,0.77051 -0.09,3.48742 -0.8579,6.03757 -1.2139,4.03349 -1.2031,4.82888 0.083,6.11461 0.9168,0.91676 1.2235,2.27975 0.8079,3.58948 -0.7818,2.46296 -1.1531,2.51083 -4.6669,0.60166 z m -141.46021,-4.86836 c -0.32207,-0.83931 -0.29579,-1.99492 0.0584,-2.56802 0.35419,-0.5731 -0.50593,-2.54962 -1.91139,-4.39228 -1.40545,-1.84268 -2.55537,-3.63927 -2.55537,-3.99245 0,-1.29481 -7.54972,-7.61578 -9.12756,-7.64201 -0.89515,-0.0149 -2.1382,-0.64235 -2.76233,-1.39438 -1.72179,-2.07464 1.40128,-4.15468 5.63218,-3.75116 0.68325,0.0652 2.44514,1.46848 3.91529,3.11848 1.47016,1.65 3.40863,3 4.30772,3 2.22461,0 3.99645,1.9361 3.33923,3.6488 -0.29655,0.7728 0.71684,3.21753 2.25198,5.43275 2.31202,3.33624 2.62903,4.48869 1.84666,6.71334 -1.06545,3.02961 -4.10646,4.14189 -4.99481,1.8269 z m 56.81186,-1.87182 c -0.56357,-0.6875 -1.53396,-3.15485 -2.15641,-5.48299 -0.62246,-2.32815 -2.01646,-4.70648 -3.09777,-5.28519 -2.12203,-1.13567 -2.67814,-4.57779 -0.83867,-5.19094 0.83361,-0.27787 0.83831,-1.72368 0.018,-5.54852 -1.34641,-6.27808 -0.8879,-7.69216 3.01881,-9.31038 2.50183,-1.03629 3.17374,-1.00908 3.91284,0.15844 1.27135,2.00835 1.13371,2.89147 -0.55156,3.53817 -1.17775,0.45195 -1.3474,1.80413 -0.84294,6.71862 0.34736,3.38403 1.19171,7.05279 1.87634,8.15279 0.68461,1.1 1.54971,3.4625 1.92241,5.25 0.4618,2.21515 1.252,3.25 2.4815,3.25 1.7348,0 3.4113,3.2926 2.2618,4.4421 -1.0638,1.06373 -6.98473,0.55177 -8.00438,-0.6921 z m 39.41465,-1.82258 c -2.3198,-1.82477 -2.6349,-2.78506 -2.6349,-8.03138 0,-4.37423 -0.3989,-6.11188 -1.5,-6.53441 -2.0279,-0.7782 -1.9056,-5.03526 0.1782,-6.20142 1.1964,-0.6695 1.8057,-2.70195 2.1223,-7.07863 0.4927,-6.81204 2.3476,-9.08158 7.422,-9.08158 2.2598,0 2.7775,0.44428 2.7775,2.38337 0,1.54236 -0.7057,2.56792 -2,2.90638 -1.6114,0.4214 -2.0012,1.36692 -2.0061,4.86663 0,2.38899 -0.6478,5.5735 -1.4319,7.07668 -0.8279,1.58688 -1.035,2.97461 -0.4939,3.30902 0.5126,0.31678 0.9319,3.00856 0.9319,5.98175 0,4.38235 0.3787,5.60845 2,6.47617 1.1696,0.62592 2,2.09382 2,3.53518 0,3.16783 -3.5932,3.35919 -7.3651,0.39224 z m 14.3651,-0.31079 c 0,-1.54236 0.7058,-2.56792 2,-2.90638 1.6115,-0.4214 2.0012,-1.36692 2.0062,-4.86663 0,-2.38899 0.6477,-5.5735 1.4319,-7.07668 0.8278,-1.58688 1.0349,-2.97461 0.4938,-3.30902 -0.5125,-0.31678 -0.9319,-3.00856 -0.9319,-5.98175 0,-4.38235 -0.3786,-5.60845 -2,-6.47617 -1.2096,-0.64737 -2,-2.09382 -2,-3.66018 0,-2.37757 0.261,-2.53762 3.1844,-1.95294 5.3577,1.07154 6.8156,3.16769 6.8156,9.79949 0,4.30098 0.4022,6.03072 1.5,6.452 1.9233,0.73802 2.0338,6.36163 0.125,6.36163 -1.4754,0 -2.625,4.19039 -2.625,9.5683 0,3.86074 -2.887,6.4317 -7.2225,6.4317 -2.2597,0 -2.7775,-0.44428 -2.7775,-2.38337 z m -39.3333,0.7167 c -1.1866,-1.1866 -0.7066,-4.10401 0.7683,-4.66999 1.1539,-0.44279 1.2345,-1.27641 0.4119,-4.25588 -0.5627,-2.03789 -0.8214,-4.76038 -0.5749,-6.05 0.2466,-1.28962 -0.1519,-2.84284 -0.8854,-3.45159 -0.7335,-0.60876 -1.6176,-2.62059 -1.9647,-4.47072 -0.6279,-3.34667 -2.0142,-5.22384 -3.9219,-5.3105 -0.55,-0.025 -1.1474,-0.99083 -1.3276,-2.14633 -0.2961,-1.89919 0.088,-2.07101 4,-1.78961 4.2206,0.30359 4.3656,0.43138 5.8647,5.16902 0.8454,2.67176 2.2233,5.37176 3.062,6 2.2695,1.70008 2.9583,4.34977 1.455,5.5974 -1.0196,0.84619 -1.095,2.0155 -0.3256,5.04691 1.3135,5.17493 0.415,8.38373 -2.7516,9.82652 -3.0131,1.37287 -2.9504,1.36457 -3.8102,0.50477 z m 143.8333,-12.33333 c -0.7921,-1.28171 0.2597,-3 1.8364,-3 3.0014,0 9.4677,-10.43496 8.8303,-14.25 -0.4052,-2.42491 2.5033,-2.23523 3.8333,0.25 0.7783,1.45421 0.7405,2.61401 -0.1384,4.25 -0.6649,1.2375 -1.5062,3.6 -1.8695,5.25 -0.3634,1.65 -1.1605,2.89575 -1.7713,2.76834 -0.6109,-0.12741 -2.0661,1.11009 -3.2338,2.75 -2.123,2.98139 -6.2019,4.061 -7.487,1.98166 z m -6.2875,-4.1875 c -1.6408,-1.64079 -1.5247,-3.92167 0.3345,-6.57616 0.8509,-1.21477 1.4134,-2.79224 1.25,-3.50549 -0.4665,-2.03695 6.8194,-8.73085 9.503,-8.73085 1.3017,0 2.6628,0.2961 3.0247,0.65799 0.8482,0.84822 -1.3023,3.47386 -2.3267,2.84074 -1.6901,-1.04452 -8.976,10.67277 -8.6702,13.94359 0.2116,2.26384 -1.4783,3.00712 -3.1153,1.37018 z m -193.50188,-10.0625 c -0.91943,-0.6875 -2.27861,-3.05 -3.02042,-5.25 -0.75191,-2.22995 -2.30083,-4.43317 -3.5003,-4.97888 -2.71891,-1.23701 -3.56366,-3.36581 -2.05632,-5.18204 0.90282,-1.08783 0.74941,-2.6391 -0.6756,-6.8314 -1.80613,-5.31355 -1.80434,-5.46744 0.088,-7.55845 3.33876,-3.6893 5.2297,-4.23696 6.49111,-1.87999 0.89642,1.67498 0.79691,2.33168 -0.49663,3.27754 -1.4838,1.08498 -1.4864,1.55402 -0.0314,5.66804 0.87244,2.46685 1.38864,5.24711 1.14709,6.17836 -0.24154,0.93125 0.37155,2.42687 1.36242,3.3236 0.99087,0.89673 2.10324,2.83228 2.47192,4.30122 0.88279,3.51732 2.34401,5.18275 3.99231,4.55024 1.87484,-0.71945 3.13436,3.62603 1.37424,4.74129 -1.96542,1.24535 -5.21907,1.08166 -7.14642,-0.35953 z M -416.616,40.9239 c -1.7224,-0.95929 -1.9695,-1.59157 -1.1758,-3.00839 0.6329,-1.12973 1.6747,-1.58126 2.8141,-1.21965 1.3242,0.42029 2.3711,-0.37843 3.9061,-2.98001 1.1533,-1.9548 2.7809,-3.81661 3.6167,-4.13734 0.8358,-0.32073 1.5196,-1.25304 1.5196,-2.07179 0,-0.81875 0.9441,-2.81444 2.0979,-4.43487 1.3062,-1.83441 1.888,-3.78266 1.5416,-5.16268 -0.3059,-1.21904 -0.1487,-2.87591 0.3495,-3.68193 0.7592,-1.22846 1.3186,-1.07762 3.4584,0.93262 3.1908,2.99766 3.2004,4.63185 0.055,9.2615 -1.374,2.02196 -2.3865,4.69338 -2.25,5.93648 0.174,1.58593 -0.5361,2.6456 -2.3805,3.55218 -1.4457,0.7106 -3.8311,2.86865 -5.3009,4.79566 -2.8226,3.70071 -4.6888,4.20239 -8.2512,2.21822 z m -158.86577,-1.86107 c -0.45961,-1.44812 -0.17299,-2.43097 0.88093,-3.02077 1.39218,-0.7791 1.40457,-1.32102 0.11388,-4.97921 -0.79657,-2.25773 -1.44831,-5.14683 -1.44831,-6.42022 0,-1.27339 -0.43719,-2.58545 -0.97153,-2.91569 -0.53434,-0.33024 -1.86929,-2.62998 -2.96656,-5.11054 -1.3612,-3.07723 -2.51914,-4.4143 -3.64474,-4.20858 -0.96479,0.17634 -2.0017,-0.62846 -2.49751,-1.93845 -0.70632,-1.86619 -0.45359,-2.3389 1.51456,-2.83288 5.67033,-1.42316 7.17157,-0.30044 10.79465,8.07285 0.71394,1.65 1.92166,3 2.68382,3 1.78032,0 3.16922,3.77238 1.729,4.69611 -0.77434,0.49664 -0.73523,2.00509 0.13649,5.26435 1.76651,6.60479 1.52906,9.21093 -1.00069,10.98284 -3.02713,2.12029 -4.5162,1.95532 -5.32399,-0.58981 z m 115.10227,-3.76325 c -0.9733,-1.57485 0.5282,-3.96068 2.6947,-4.28177 1.3167,-0.19514 2.4796,-1.4918 3.1654,-3.52943 0.5963,-1.77153 1.8716,-4.13918 2.8341,-5.26143 0.9625,-1.12226 1.75,-2.99562 1.75,-4.16302 0,-1.1674 0.5319,-3.89763 1.1819,-6.06717 0.9418,-3.14354 0.9201,-4.10639 -0.1071,-4.74118 -1.5639,-0.9666 -0.5097,-5.04624 1.3041,-5.04624 2.142,0 5.6211,3.97155 5.6211,6.41683 0,1.28641 -0.6974,4.0082 -1.5499,6.04842 -1.1682,2.79592 -1.271,4.04559 -0.4174,5.07414 1.4241,1.71588 0.3157,5.46061 -1.6162,5.46061 -0.7969,0 -2.2113,1.6875 -3.1431,3.75 -2.59,5.73226 -4.2373,7.25 -7.8693,7.25 -1.8073,0 -3.5391,-0.40939 -3.8483,-0.90976 z m 34.2513,-0.84024 c -2.9203,-3.40052 -2.9521,-4.32687 -0.3032,-8.84676 1.4623,-2.49532 2.3894,-5.2389 2.0602,-6.09684 -0.73,-1.90233 1.0903,-4.29263 3.3084,-4.34435 0.8951,-0.0209 2.8607,-1.82087 4.368,-4 1.5073,-2.17913 3.3986,-3.96205 4.203,-3.96205 1.9491,0 6.5565,2.13489 6.5565,3.03807 0,1.12202 -2.679,3.06355 -3.7905,2.74702 -1.0945,-0.31169 -9.2095,8.00043 -9.2095,9.43318 0,0.48702 -1.0125,2.71714 -2.25,4.95581 -1.5998,2.89415 -1.8992,4.20009 -1.036,4.51943 0.9482,0.35083 0.9503,0.87119 0.01,2.3778 -1.483,2.37463 -2.0098,2.39866 -3.9163,0.17869 z m -198.55707,-4.79032 c -1.7875,-1.87157 -3.25,-3.94619 -3.25,-4.61027 0,-0.66408 -0.542,-2.70629 -1.20445,-4.53825 -1.03555,-2.86376 -0.96036,-3.57486 0.53617,-5.071 1.49059,-1.49021 1.86957,-1.53156 2.63846,-0.28791 0.49382,0.79874 0.6592,1.8384 0.36752,2.31036 -0.71338,1.15428 1.65908,6.77188 3.87526,9.17595 0.98287,1.06621 1.78704,2.35186 1.78704,2.85699 0,0.50514 0.63776,0.6737 1.41724,0.37458 1.44511,-0.55454 2.93307,1.64623 1.84719,2.7321 -1.4816,1.48161 -5.03508,0.17693 -8.01443,-2.94255 z m 152.81147,0.6018 c -2.424,-2.42403 -2.5596,-4.39814 -0.67,-9.75395 0.88,-2.49409 1.0632,-4.53057 0.4984,-5.53978 -1.1305,-2.0202 -0.1205,-4.76775 1.7527,-4.76775 0.7857,0 2.3329,-2.1375 3.4383,-4.75 2.8239,-6.67392 6.6844,-8.95219 10.7761,-6.35953 1.8848,1.19426 0.4898,5.24468 -1.6828,4.88597 -1.1139,-0.18394 -2.3548,1.14035 -3.7081,3.95748 -1.1187,2.32866 -2.5812,4.78116 -3.25,5.45 -0.6688,0.66884 -1.2161,2.33163 -1.2161,3.69508 0,1.36345 -0.5493,3.99803 -1.2206,5.85462 -0.9868,2.72895 -0.968,3.53179 0.098,4.19083 1.7684,1.09292 1.0216,4.47125 -1.0778,4.87555 -0.9223,0.17763 -2.6047,-0.6047 -3.7385,-1.73852 z m -141.20953,-0.84286 c -0.0814,-0.39524 -0.21989,-1.39362 -0.30768,-2.21862 -0.5806,-5.45599 -5.37797,-13 -8.26694,-13 -1.78007,0 -1.60381,-2.66074 0.22268,-3.36163 2.17015,-0.83276 4.03914,0.132 5.48331,2.83044 0.69547,1.2995 2.16718,2.59879 3.27047,2.8873 1.35019,0.35309 1.80375,1.05159 1.38738,2.13663 -0.34023,0.88663 0.0886,2.69144 0.95305,4.01069 1.72506,2.63278 1.17221,5.98849 -1.13228,6.8728 -0.80406,0.30855 -1.52856,0.23762 -1.60999,-0.15761 z m 67.57693,-5.6154 c -1.13919,-0.80636 -2.60423,-3.24515 -3.25568,-5.41951 -0.73632,-2.4576 -1.92411,-4.14682 -3.13935,-4.46461 -1.58348,-0.41409 -1.93606,-1.33839 -1.85583,-4.86515 0.0545,-2.39467 -0.23933,-6.20519 -0.6529,-8.46781 -0.66341,-3.6296 -0.47695,-4.30646 1.58399,-5.75 1.28475,-0.89988 2.86264,-1.63614 3.50642,-1.63614 1.89845,0 2.55955,3.14908 0.91889,4.37706 -1.33375,0.99826 -1.33369,1.60217 5.9e-4,5.43937 0.82551,2.37403 1.22376,4.76489 0.885,5.31301 -0.33876,0.54812 0.0584,1.75573 0.88245,2.68357 0.82411,0.92785 2.19332,3.36991 3.04272,5.42682 1.0554,2.556 2.008,3.56188 3.0092,3.17768 0.9205,-0.35325 1.7183,0.23598 2.1466,1.58553 0.8071,2.54295 0.7265,2.65399 -2.503,3.45035 -1.503,0.37061 -3.3229,0.032 -4.5691,-0.85017 z m 12.5711,-4.40322 c 0,-0.99 0.5278,-2.32779 1.1729,-2.97287 0.8972,-0.89717 0.8972,-1.77799 0,-3.74706 -0.6451,-1.4158 -1.1729,-3.48842 -1.1729,-4.60582 0,-3.27279 -5.3501,-13.92504 -6.7347,-13.40896 -1.0397,0.38752 -3.2653,-2.21624 -3.2653,-3.82009 0,-0.26746 1.3685,-0.78685 3.041,-1.1542 3.7924,-0.83296 5.6397,0.59829 8.0601,6.24484 1.0053,2.34529 2.4664,4.26416 3.2468,4.26416 1.7283,0 2.9901,4.1731 1.5339,5.07308 -0.7043,0.43525 -0.5518,2.29898 0.4694,5.73763 1.4334,4.82691 1.4077,5.2261 -0.492,7.64113 -2.3431,2.97884 -5.8592,3.42781 -5.8592,0.74816 z m 38,0.16024 c 0,-0.90186 0.6697,-2.13936 1.4882,-2.75 1.0287,-0.76742 1.6667,-3.81388 2.0662,-9.86622 0.4872,-7.37992 0.3319,-8.85044 -0.9882,-9.35699 -0.8614,-0.33056 -1.5662,-1.48319 -1.5662,-2.56141 0,-1.57071 0.4473,-1.82328 2.25,-1.27062 3.8359,1.17596 4.75,2.53607 4.75,7.06744 0,2.40766 0.45,4.37756 1,4.37756 1.5429,0 1.1825,3.60367 -0.5,5 -0.825,0.68469 -1.5,2.73265 -1.5,4.55102 0,1.81837 -0.7071,4.01327 -1.5714,4.87755 -2.0751,2.07508 -5.4286,2.03287 -5.4286,-0.0683 z m -10.25,-0.44034 c -1.2937,-0.75352 -1.75,-2.30997 -1.75,-5.96959 0,-2.72267 -0.45,-4.95031 -1,-4.95031 -1.5187,0 -1.1945,-2.59366 0.5,-4 0.8571,-0.71132 1.5,-2.89177 1.5,-5.08726 0,-3.9073 1.8432,-5.91274 5.4343,-5.91274 2.0136,0 2.0292,2.94062 0.023,4.40737 -2.0228,1.4791 -2.6446,17.58381 -0.7076,18.327 0.6875,0.26379 1.25,1.33146 1.25,2.37262 0,2.08924 -2.4163,2.46338 -5.25,0.81291 z m 77.9167,-14.58657 c -1.0859,-1.08586 -0.7619,-2.33333 0.6059,-2.33333 2.167,0 6.3847,-9.63093 5.8412,-13.33831 -0.1927,-1.31463 0.2513,-1.73166 1.5584,-1.46393 1.5482,0.31712 1.7821,1.21025 1.5286,5.83831 -0.1645,3.00516 -0.7365,5.61709 -1.271,5.80428 -0.5345,0.18719 -1.6489,1.64969 -2.4765,3.25 -1.3973,2.70215 -4.2296,3.79999 -5.7866,2.24298 z m -7.1366,-4.23869 c -0.3525,-1.1105 -0.1676,-2.90349 0.4109,-3.98443 0.5785,-1.08093 0.7818,-2.66913 0.4517,-3.52934 -0.3496,-0.91088 0.031,-1.80634 0.912,-2.1443 0.8317,-0.31915 2.058,-1.89795 2.7251,-3.50843 0.8241,-1.98948 1.922,-2.92814 3.4249,-2.92814 3.6205,0 3.6179,1.02442 -0.012,4.76237 -3.2761,3.37329 -3.6761,4.41886 -3.9133,10.23094 -0.1267,3.10282 -3.1035,3.92265 -3.999,1.10133 z m -141.66257,-6.59464 c -1.13578,-1.925 -2.52309,-3.5 -3.08291,-3.5 -0.55982,0 -0.77447,-0.93068 -0.47701,-2.06818 0.29746,-1.13751 0.0738,-3.40803 -0.49709,-5.0456 -0.84677,-2.42906 -0.71218,-3.33737 0.73078,-4.93182 2.6318,-2.90811 3.28504,-2.41859 3.21208,2.40702 -0.068,4.50164 3.73998,14.06975 5.23252,13.14731 0.96646,-0.5973 2.13189,2.04018 1.27856,2.8935 -1.60538,1.60539 -4.51668,0.28455 -6.39693,-2.90223 z m 9.77614,0.0137 c -0.30596,-0.79731 -0.16982,-1.68851 0.30254,-1.98045 1.66198,-1.02716 -3.76146,-15.33127 -5.60511,-14.78326 -0.46259,0.1375 -0.84107,-0.3125 -0.84107,-1 0,-0.6875 1.11894,-1.25 2.48653,-1.25 1.78106,0 2.88879,0.85114 3.90437,3 0.77982,1.65 1.88247,3.30353 2.45034,3.67451 0.56788,0.37098 1.17791,3.16524 1.35563,6.20946 0.26991,4.62351 0.009,5.70329 -1.58691,6.55718 -1.44268,0.7721 -2.04615,0.66751 -2.46632,-0.42744 z m 93.76263,-4.66541 c -0.3915,-0.63344 -0.066,-1.64594 0.724,-2.25 2.362,-1.80679 4.2146,-9.04005 3.4846,-13.60509 -0.6219,-3.88941 -0.5249,-4.11904 1.6117,-3.81583 1.928,0.27361 2.2763,0.93031 2.2921,4.32262 0.01,2.2 0.4166,4.63077 0.9028,5.4017 0.5905,0.93617 0.3352,1.80309 -0.7687,2.61025 -0.909,0.66469 -1.6528,1.8463 -1.6528,2.62579 0,2.08484 -2.8981,5.86226 -4.4977,5.86226 -0.7613,0 -1.7045,-0.51827 -2.096,-1.1517 z m -53.2063,-1.04829 c -0.66,-0.66 -1.2,-2.08707 -1.2,-3.17126 0,-1.08419 -0.7191,-2.76584 -1.5979,-3.73699 -0.9533,-1.0533 -1.2742,-2.28968 -0.7954,-3.06434 0.4414,-0.71424 0.6788,-2.73482 0.5276,-4.49018 -0.2024,-2.34986 0.2537,-3.4745 1.7296,-4.2644 3.0169,-1.61458 3.1475,-1.43505 2.483,3.41287 -0.7015,5.11837 1.1748,13.11676 3.2652,13.91892 0.7633,0.29294 1.3879,0.99673 1.3879,1.564 0,1.42512 -4.3322,1.29918 -5.8,-0.16862 z m 8.8,-1.24098 c 0,-0.79254 0.385,-1.6789 0.8555,-1.96968 1.5472,-0.95625 -1.184,-14.58934 -2.9229,-14.58934 -0.5129,0 -0.9326,-0.675 -0.9326,-1.5 0,-1.81575 3.3666,-1.99333 4.7397,-0.25 0.5415,0.6875 1.2802,2.4875 1.6415,4 0.3613,1.5125 1.0658,2.75 1.5656,2.75 1.2601,0 0.013,11.32594 -1.3471,12.23469 -1.8013,1.20345 -3.5997,0.86589 -3.5997,-0.67567 z m 36.5531,0.19098 c -0.2113,-0.6875 -0.6214,-3.57423 -0.9114,-6.41496 -0.4019,-3.93679 -0.1842,-5.29661 0.9155,-5.71861 0.7936,-0.30451 1.4428,-1.60278 1.4428,-2.88505 0,-2.76362 1.7222,-4.73138 4.141,-4.73138 2.481,0 3.1313,1.5849 1.3721,3.34407 -2.9794,2.97939 -5.7128,14.65593 -3.4309,14.65593 0.5048,0 0.9178,0.675 0.9178,1.5 0,1.8118 -3.8996,2.03103 -4.4469,0.25 z"
         id="path980"
         sodipodi:nodetypes="ssssssscssssssssscssscssscsssscsssssscsscsscsssscssssssssssssssscssscssssscsssccccsssscssssssscsccccssssscssssccccssscssssssccssssssssssssssssssssssssssssssssssssssssssssssssssssssssssssssssssssssssssssssssssssssssssssssssssssssssssscsssssssssssssccsssssssssssssssssssssscscssssssssssssssssssssssssssssssssssssssscsssssssscssssssssssssssssssssssssssssssssssssssssssssssssssssssssssscssssssssscsssccssssssssssssssssssssssssssscsscsssssssssscccssssssssssscsssssssssscsccsssssssssssssssssssssssssssssssssssssssssssssssssssscssssssssccsssssssscssssscsccsssssssssssssssssssscsscsssssssssssssssssssssssssssssssss" />
    </g>
  </g>
</svg>
