<?xml version="1.0" encoding="UTF-8" standalone="no"?>
<!-- Created with Inkscape (http://www.inkscape.org/) -->

<svg
   width="210mm"
   height="297mm"
   viewBox="0 0 210 297"
   version="1.1"
   id="svg19237"
   inkscape:version="1.1.1 (1:1.1+202109281949+c3084ef5ed)"
   sodipodi:docname="coding.svg"
   xmlns:inkscape="http://www.inkscape.org/namespaces/inkscape"
   xmlns:sodipodi="http://sodipodi.sourceforge.net/DTD/sodipodi-0.dtd"
   xmlns:xlink="http://www.w3.org/1999/xlink"
   xmlns="http://www.w3.org/2000/svg"
   xmlns:svg="http://www.w3.org/2000/svg">
  <sodipodi:namedview
     id="namedview19239"
     pagecolor="#ffffff"
     bordercolor="#666666"
     borderopacity="1.0"
     inkscape:pageshadow="2"
     inkscape:pageopacity="0.0"
     inkscape:pagecheckerboard="0"
     inkscape:document-units="mm"
     showgrid="false"
     inkscape:zoom="0.64052329"
     inkscape:cx="396.55076"
     inkscape:cy="561.25984"
     inkscape:window-width="1920"
     inkscape:window-height="1022"
     inkscape:window-x="0"
     inkscape:window-y="27"
     inkscape:window-maximized="1"
     inkscape:current-layer="layer1" />
  <defs
     id="defs19234">
    <linearGradient
       inkscape:collect="always"
       xlink:href="#linearGradient1226"
       id="linearGradient1154"
       x1="131.5547"
       y1="130.55608"
       x2="181.12167"
       y2="194.87404"
       gradientUnits="userSpaceOnUse"
       gradientTransform="matrix(3.359495,0,0,3.359495,-393.79054,-374.94594)" />
    <linearGradient
       id="linearGradient1226">
      <stop
         offset="0"
         stop-color="#0f6"
         id="stop1222"
         style="stop-color:#3fc1c6;stop-opacity:1" />
      <stop
         offset="1"
         stop-color="#0082af"
         id="stop1224" />
    </linearGradient>
  </defs>
  <g
     inkscape:label="Layer 1"
     inkscape:groupmode="layer"
     id="layer1">
    <path
       style="fill:url(#linearGradient1154);fill-opacity:1;stroke-width:3.3595"
       d="M 22.179178,278.84722 C 12.714943,276.13618 4.9594476,268.34253 2.1257135,258.69503 1.3446642,256.03594 1.2582928,245.17568 1.2582928,149.64293 1.2582928,53.628186 1.3416074,43.263373 2.1349859,40.590892 5.124063,30.52219 12.203595,23.440076 22.664221,20.05424 c 2.531413,-0.819389 8.421447,-0.902866 63.685473,-0.902866 53.258656,0 61.039646,0.102087 62.040716,0.815582 2.45644,1.7503 58.73545,53.957785 59.88739,55.554832 l 1.22335,1.696063 V 166.1924 c 0,98.10891 0.21669,91.83678 -3.407,98.63542 -2.3471,4.40361 -7.68424,9.64473 -11.97,11.7546 -7.03741,3.46451 -1.69772,3.27044 -89.01627,3.23506 -73.736987,-0.0303 -79.897531,-0.10181 -82.928702,-0.97026 z M 187.82418,265.03846 c 3.6663,-1.89795 6.74889,-5.31181 8.13085,-9.00467 0.61986,-1.65635 0.77456,-16.3656 0.90572,-86.10928 l 0.15824,-84.111652 -22.16804,-0.18141 c -19.80374,-0.162266 -22.4431,-0.286562 -24.74747,-1.165676 -3.38919,-1.29304 -7.71928,-5.242768 -9.54826,-8.709425 l -1.46514,-2.777099 -0.16058,-20.537501 -0.16059,-20.537504 -56.114082,0.148173 -56.114052,0.148174 -2.842032,1.284971 c -3.323783,1.50273 -6.828006,5.085299 -8.488503,8.678248 l -1.174915,2.54224 V 149.09927 c 0,98.77123 0.05241,104.54291 0.969783,107.17127 1.334929,3.82395 4.137823,6.89538 8.098904,8.8747 l 3.338595,1.66835 H 105.4188 184.39498 Z M 98.180098,213.69991 c -1.643471,-0.33025 -4.470731,-3.23523 -4.572249,-4.69797 -0.154466,-2.22434 0.162262,-4.50318 5.552432,-39.94355 2.969469,-19.52484 5.756339,-36.1907 6.193069,-37.03523 0.79428,-1.53593 3.72505,-3.31323 5.46352,-3.31323 1.59603,0 4.52046,1.66768 5.47258,3.12079 0.51198,0.78135 0.8937,2.3766 0.86699,3.62323 -0.0947,4.42015 -11.02753,73.99182 -11.81938,75.21341 -1.48389,2.28928 -4.49861,3.56667 -7.156962,3.03255 z M 73.271041,198.87157 c -1.22644,-0.49671 -4.087631,-3.67 -14.682504,-16.28385 -7.031275,-8.37122 -7.036624,-8.37969 -7.036624,-11.18752 v -2.80995 l 9.43346,-11.23814 c 5.188375,-6.18098 10.161773,-11.85099 11.051929,-12.60003 4.064619,-3.42017 10.234535,-0.20426 10.234535,5.33424 0,2.12559 -0.0036,2.13273 -9.088945,12.93849 -3.673344,4.36959 -6.678806,8.12063 -6.678806,8.33558 0,0.21501 3.130514,4.1023 6.95667,8.63856 8.579044,10.17125 8.811081,10.50753 8.811081,12.77046 0,4.64111 -4.715223,7.83783 -9.000796,6.10216 z m 57.065199,-1.32735 c -1.53929,-1.53932 -1.84863,-2.2469 -1.84863,-4.22873 0,-2.86495 0.0169,-2.88946 8.81108,-13.31654 3.82616,-4.53626 6.95664,-8.41234 6.95664,-8.6135 0,-0.20123 -2.9972,-3.90722 -6.66048,-8.23561 -8.48953,-10.03091 -9.10724,-10.92013 -9.10724,-13.11079 0,-3.92036 2.82113,-6.64884 6.87459,-6.64884 2.48812,0 3.88631,1.37758 15.62273,15.39263 7.08773,8.46375 8.12015,9.94279 8.34111,11.94959 0.19921,1.80973 -0.0303,2.70187 -1.08798,4.25227 -2.13529,3.12622 -18.78196,22.64936 -20.09866,23.5716 -0.65687,0.46012 -2.26534,0.83655 -3.57443,0.83655 -1.98183,0 -2.68945,-0.30941 -4.22873,-1.84863 z M 186.1214,72.476702 c 0,-0.126938 -7.70716,-7.351642 -17.12702,-16.055119 l -17.12703,-15.82451 v 14.591903 c 0,15.25876 0.0464,15.577504 2.44675,16.890505 1.03396,0.565528 31.8073,0.949835 31.8073,0.397221 z"
       id="path903" />
  </g>
</svg>
