<?xml version="1.0" encoding="UTF-8" standalone="no"?>
<svg
   data-name="Layer 1"
   id="Layer_1"
   viewBox="0 0 693.64409 634.1889"
   version="1.1"
   sodipodi:docname="cz.svg"
   width="693.6441"
   height="634.1889"
   inkscape:version="1.1-dev (7bb339f916, 2021-01-15, custom)"
   xmlns:inkscape="http://www.inkscape.org/namespaces/inkscape"
   xmlns:sodipodi="http://sodipodi.sourceforge.net/DTD/sodipodi-0.dtd"
   xmlns:xlink="http://www.w3.org/1999/xlink"
   xmlns="http://www.w3.org/2000/svg"
   xmlns:svg="http://www.w3.org/2000/svg"
   xmlns:rdf="http://www.w3.org/1999/02/22-rdf-syntax-ns#"
   xmlns:cc="http://creativecommons.org/ns#"
   xmlns:dc="http://purl.org/dc/elements/1.1/">
  <metadata
     id="metadata37">
    <rdf:RDF>
      <cc:Work
         rdf:about="">
        <dc:format>image/svg+xml</dc:format>
        <dc:type
           rdf:resource="http://purl.org/dc/dcmitype/StillImage" />
      </cc:Work>
    </rdf:RDF>
  </metadata>
  <sodipodi:namedview
     pagecolor="#ffffff"
     bordercolor="#666666"
     borderopacity="1"
     objecttolerance="10"
     gridtolerance="10"
     guidetolerance="10"
     inkscape:pageopacity="0"
     inkscape:pageshadow="2"
     inkscape:window-width="1916"
     inkscape:window-height="1050"
     id="namedview35"
     showgrid="false"
     inkscape:zoom="0.43457605"
     inkscape:cx="300.29266"
     inkscape:cy="-14.957106"
     inkscape:window-x="0"
     inkscape:window-y="26"
     inkscape:window-maximized="1"
     inkscape:current-layer="g32"
     inkscape:pagecheckerboard="0"
     fit-margin-top="0"
     fit-margin-left="0"
     fit-margin-right="0"
     fit-margin-bottom="0" />
  <defs
     id="defs4">
    <linearGradient
       inkscape:collect="always"
       id="linearGradient894">
      <stop
         style="stop-color:#00ff66;stop-opacity:1"
         offset="0"
         id="stop890" />
      <stop
         style="stop-color:#0082af;stop-opacity:1"
         offset="1"
         id="stop892" />
    </linearGradient>
    <style
       id="style2">
      .cls-1, .cls-2, .cls-3 {
        fill: none;
        stroke: #353535;
        stroke-width: 2px;
      }

      .cls-1, .cls-2 {
        stroke-linecap: round;
      }

      .cls-1 {
        stroke-miterlimit: 10;
      }

      .cls-2, .cls-3 {
        stroke-linejoin: round;
      }
    </style>
    <linearGradient
       inkscape:collect="always"
       xlink:href="#linearGradient894"
       id="linearGradient896"
       x1="1.5254236"
       y1="0.74440819"
       x2="39.589581"
       y2="31.964746"
       gradientUnits="userSpaceOnUse" />
    <clipPath
       clipPathUnits="userSpaceOnUse"
       id="clipPath1044">
      <rect
         style="opacity:0.256562;fill:#008cff;stroke-width:0.499999;stroke-linecap:round;stroke-linejoin:round"
         id="rect1046"
         width="30.993855"
         height="49.731895"
         x="145.23416"
         y="154.06508" />
    </clipPath>
    <linearGradient
       inkscape:collect="always"
       xlink:href="#linearGradient894"
       id="linearGradient834"
       gradientUnits="userSpaceOnUse"
       x1="1.5254236"
       y1="0.74440819"
       x2="39.589581"
       y2="31.964746" />
    <linearGradient
       inkscape:collect="always"
       xlink:href="#linearGradient894"
       id="linearGradient2633"
       x1="0"
       y1="230.65601"
       x2="461.31201"
       y2="230.65601"
       gradientUnits="userSpaceOnUse" />
    <linearGradient
       inkscape:collect="always"
       xlink:href="#linearGradient894"
       id="linearGradient2635"
       x1="132.12189"
       y1="370.26901"
       x2="608.41699"
       y2="370.26901"
       gradientUnits="userSpaceOnUse" />
    <linearGradient
       inkscape:collect="always"
       xlink:href="#linearGradient894"
       id="linearGradient2637"
       x1="2"
       y1="37"
       x2="72"
       y2="37"
       gradientUnits="userSpaceOnUse" />
    <linearGradient
       inkscape:collect="always"
       xlink:href="#linearGradient894"
       id="linearGradient2657"
       gradientUnits="userSpaceOnUse"
       x1="2"
       y1="37"
       x2="72"
       y2="37" />
    <linearGradient
       inkscape:collect="always"
       xlink:href="#linearGradient894"
       id="linearGradient2659"
       gradientUnits="userSpaceOnUse"
       x1="2"
       y1="37"
       x2="72"
       y2="37" />
    <linearGradient
       inkscape:collect="always"
       xlink:href="#linearGradient894"
       id="linearGradient2661"
       gradientUnits="userSpaceOnUse"
       x1="2"
       y1="37"
       x2="72"
       y2="37" />
    <linearGradient
       inkscape:collect="always"
       xlink:href="#linearGradient894"
       id="linearGradient2663"
       gradientUnits="userSpaceOnUse"
       x1="2"
       y1="37"
       x2="72"
       y2="37" />
    <linearGradient
       inkscape:collect="always"
       xlink:href="#linearGradient894"
       id="linearGradient2665"
       gradientUnits="userSpaceOnUse"
       x1="2"
       y1="37"
       x2="72"
       y2="37" />
    <linearGradient
       inkscape:collect="always"
       xlink:href="#linearGradient894"
       id="linearGradient2834"
       gradientUnits="userSpaceOnUse"
       x1="132.12189"
       y1="370.26901"
       x2="608.41699"
       y2="370.26901" />
    <linearGradient
       inkscape:collect="always"
       xlink:href="#linearGradient894"
       id="linearGradient2836"
       gradientUnits="userSpaceOnUse"
       x1="132.12189"
       y1="370.26901"
       x2="608.41699"
       y2="370.26901" />
    <linearGradient
       inkscape:collect="always"
       xlink:href="#linearGradient894"
       id="linearGradient2838"
       gradientUnits="userSpaceOnUse"
       x1="132.12189"
       y1="370.26901"
       x2="608.41699"
       y2="370.26901" />
    <linearGradient
       inkscape:collect="always"
       xlink:href="#linearGradient894"
       id="linearGradient2840"
       gradientUnits="userSpaceOnUse"
       x1="132.12189"
       y1="370.26901"
       x2="608.41699"
       y2="370.26901" />
    <linearGradient
       inkscape:collect="always"
       xlink:href="#linearGradient894"
       id="linearGradient2842"
       gradientUnits="userSpaceOnUse"
       x1="132.12189"
       y1="370.26901"
       x2="608.41699"
       y2="370.26901" />
    <linearGradient
       inkscape:collect="always"
       xlink:href="#linearGradient894"
       id="linearGradient2844"
       gradientUnits="userSpaceOnUse"
       x1="132.12189"
       y1="370.26901"
       x2="608.41699"
       y2="370.26901" />
    <linearGradient
       inkscape:collect="always"
       xlink:href="#linearGradient894"
       id="linearGradient2846"
       gradientUnits="userSpaceOnUse"
       x1="132.12189"
       y1="370.26901"
       x2="608.41699"
       y2="370.26901" />
    <linearGradient
       inkscape:collect="always"
       xlink:href="#linearGradient894"
       id="linearGradient2848"
       gradientUnits="userSpaceOnUse"
       x1="132.12189"
       y1="370.26901"
       x2="608.41699"
       y2="370.26901" />
    <linearGradient
       inkscape:collect="always"
       xlink:href="#linearGradient894"
       id="linearGradient2850"
       gradientUnits="userSpaceOnUse"
       x1="132.12189"
       y1="370.26901"
       x2="608.41699"
       y2="370.26901" />
    <linearGradient
       inkscape:collect="always"
       xlink:href="#linearGradient894"
       id="linearGradient2852"
       gradientUnits="userSpaceOnUse"
       x1="132.12189"
       y1="370.26901"
       x2="608.41699"
       y2="370.26901" />
    <linearGradient
       inkscape:collect="always"
       xlink:href="#linearGradient894"
       id="linearGradient2854"
       gradientUnits="userSpaceOnUse"
       x1="132.12189"
       y1="370.26901"
       x2="608.41699"
       y2="370.26901" />
    <linearGradient
       inkscape:collect="always"
       xlink:href="#linearGradient894"
       id="linearGradient2856"
       gradientUnits="userSpaceOnUse"
       x1="132.12189"
       y1="370.26901"
       x2="608.41699"
       y2="370.26901" />
    <linearGradient
       inkscape:collect="always"
       xlink:href="#linearGradient894"
       id="linearGradient2858"
       gradientUnits="userSpaceOnUse"
       x1="132.12189"
       y1="370.26901"
       x2="608.41699"
       y2="370.26901" />
    <linearGradient
       inkscape:collect="always"
       xlink:href="#linearGradient894"
       id="linearGradient2860"
       gradientUnits="userSpaceOnUse"
       x1="132.12189"
       y1="370.26901"
       x2="608.41699"
       y2="370.26901" />
    <linearGradient
       inkscape:collect="always"
       xlink:href="#linearGradient894"
       id="linearGradient2862"
       gradientUnits="userSpaceOnUse"
       x1="132.12189"
       y1="370.26901"
       x2="608.41699"
       y2="370.26901" />
    <linearGradient
       inkscape:collect="always"
       xlink:href="#linearGradient894"
       id="linearGradient2864"
       gradientUnits="userSpaceOnUse"
       x1="132.12189"
       y1="370.26901"
       x2="608.41699"
       y2="370.26901" />
    <linearGradient
       inkscape:collect="always"
       xlink:href="#linearGradient894"
       id="linearGradient2866"
       gradientUnits="userSpaceOnUse"
       x1="132.12189"
       y1="370.26901"
       x2="608.41699"
       y2="370.26901" />
    <linearGradient
       inkscape:collect="always"
       xlink:href="#linearGradient894"
       id="linearGradient2868"
       gradientUnits="userSpaceOnUse"
       x1="132.12189"
       y1="370.26901"
       x2="608.41699"
       y2="370.26901" />
    <linearGradient
       inkscape:collect="always"
       xlink:href="#linearGradient894"
       id="linearGradient2870"
       gradientUnits="userSpaceOnUse"
       x1="132.12189"
       y1="370.26901"
       x2="608.41699"
       y2="370.26901" />
    <linearGradient
       inkscape:collect="always"
       xlink:href="#linearGradient894"
       id="linearGradient2872"
       gradientUnits="userSpaceOnUse"
       x1="132.12189"
       y1="370.26901"
       x2="608.41699"
       y2="370.26901" />
    <linearGradient
       inkscape:collect="always"
       xlink:href="#linearGradient894"
       id="linearGradient2874"
       gradientUnits="userSpaceOnUse"
       x1="0"
       y1="230.65601"
       x2="461.31201"
       y2="230.65601" />
    <linearGradient
       inkscape:collect="always"
       xlink:href="#linearGradient894"
       id="linearGradient2876"
       gradientUnits="userSpaceOnUse"
       x1="0"
       y1="230.65601"
       x2="461.31201"
       y2="230.65601" />
    <linearGradient
       inkscape:collect="always"
       xlink:href="#linearGradient894"
       id="linearGradient2878"
       gradientUnits="userSpaceOnUse"
       x1="0"
       y1="230.65601"
       x2="461.31201"
       y2="230.65601" />
    <linearGradient
       inkscape:collect="always"
       xlink:href="#linearGradient894"
       id="linearGradient2880"
       gradientUnits="userSpaceOnUse"
       x1="0"
       y1="230.65601"
       x2="461.31201"
       y2="230.65601" />
    <linearGradient
       inkscape:collect="always"
       xlink:href="#linearGradient894"
       id="linearGradient2882"
       gradientUnits="userSpaceOnUse"
       x1="0"
       y1="230.65601"
       x2="461.31201"
       y2="230.65601" />
    <linearGradient
       inkscape:collect="always"
       xlink:href="#linearGradient894"
       id="linearGradient2884"
       gradientUnits="userSpaceOnUse"
       x1="0"
       y1="230.65601"
       x2="461.31201"
       y2="230.65601" />
    <linearGradient
       inkscape:collect="always"
       xlink:href="#linearGradient894"
       id="linearGradient2886"
       gradientUnits="userSpaceOnUse"
       x1="0"
       y1="230.65601"
       x2="461.31201"
       y2="230.65601" />
    <linearGradient
       inkscape:collect="always"
       xlink:href="#linearGradient894"
       id="linearGradient2888"
       gradientUnits="userSpaceOnUse"
       x1="0"
       y1="230.65601"
       x2="461.31201"
       y2="230.65601" />
    <linearGradient
       inkscape:collect="always"
       xlink:href="#linearGradient894"
       id="linearGradient2890"
       gradientUnits="userSpaceOnUse"
       x1="0"
       y1="230.65601"
       x2="461.31201"
       y2="230.65601" />
    <linearGradient
       inkscape:collect="always"
       xlink:href="#linearGradient894"
       id="linearGradient2892"
       gradientUnits="userSpaceOnUse"
       x1="0"
       y1="230.65601"
       x2="461.31201"
       y2="230.65601" />
    <linearGradient
       inkscape:collect="always"
       xlink:href="#linearGradient894"
       id="linearGradient2894"
       gradientUnits="userSpaceOnUse"
       x1="0"
       y1="230.65601"
       x2="461.31201"
       y2="230.65601" />
    <linearGradient
       inkscape:collect="always"
       xlink:href="#linearGradient894"
       id="linearGradient2896"
       gradientUnits="userSpaceOnUse"
       x1="0"
       y1="230.65601"
       x2="461.31201"
       y2="230.65601" />
    <linearGradient
       inkscape:collect="always"
       xlink:href="#linearGradient894"
       id="linearGradient2898"
       gradientUnits="userSpaceOnUse"
       x1="0"
       y1="230.65601"
       x2="461.31201"
       y2="230.65601" />
    <linearGradient
       inkscape:collect="always"
       xlink:href="#linearGradient894"
       id="linearGradient2900"
       gradientUnits="userSpaceOnUse"
       x1="0"
       y1="230.65601"
       x2="461.31201"
       y2="230.65601" />
    <linearGradient
       inkscape:collect="always"
       xlink:href="#linearGradient894"
       id="linearGradient2902"
       gradientUnits="userSpaceOnUse"
       x1="0"
       y1="230.65601"
       x2="461.31201"
       y2="230.65601" />
    <linearGradient
       inkscape:collect="always"
       xlink:href="#linearGradient894"
       id="linearGradient2904"
       gradientUnits="userSpaceOnUse"
       x1="0"
       y1="230.65601"
       x2="461.31201"
       y2="230.65601" />
    <linearGradient
       inkscape:collect="always"
       xlink:href="#linearGradient894"
       id="linearGradient2906"
       gradientUnits="userSpaceOnUse"
       x1="0"
       y1="230.65601"
       x2="461.31201"
       y2="230.65601" />
    <linearGradient
       inkscape:collect="always"
       xlink:href="#linearGradient894"
       id="linearGradient2908"
       gradientUnits="userSpaceOnUse"
       x1="0"
       y1="230.65601"
       x2="461.31201"
       y2="230.65601" />
    <linearGradient
       inkscape:collect="always"
       xlink:href="#linearGradient894"
       id="linearGradient2910"
       gradientUnits="userSpaceOnUse"
       x1="0"
       y1="230.65601"
       x2="461.31201"
       y2="230.65601" />
    <linearGradient
       inkscape:collect="always"
       xlink:href="#linearGradient894"
       id="linearGradient2912"
       gradientUnits="userSpaceOnUse"
       x1="0"
       y1="230.65601"
       x2="461.31201"
       y2="230.65601" />
    <linearGradient
       inkscape:collect="always"
       xlink:href="#linearGradient894"
       id="linearGradient2914"
       gradientUnits="userSpaceOnUse"
       x1="0"
       y1="230.65601"
       x2="461.31201"
       y2="230.65601" />
    <linearGradient
       inkscape:collect="always"
       xlink:href="#linearGradient894"
       id="linearGradient2916"
       gradientUnits="userSpaceOnUse"
       x1="1.5254236"
       y1="0.74440819"
       x2="39.589581"
       y2="31.964746" />
  </defs>
  <title
     id="title6" />
  <g
     id="g842"
     style="stroke:url(#linearGradient896)"
     transform="translate(512.9454,-97.214097)">
    <g
       transform="translate(-1.5000161,-14)"
       id="g32"
       style="stroke:url(#linearGradient834)">
      <g
         id="g2734"
         style="stroke:url(#linearGradient2916)">
        <g
           id="g891"
           transform="matrix(9.9092017,0,0,9.9092017,-531.26379,61.668088)"
           style="fill:url(#linearGradient2637);fill-opacity:1;stroke:none">
          <path
             d="M 67,59 H 7 A 5.006,5.006 0 0 1 2,54 V 18 h 2 v 36 a 3,3 0 0 0 3,3 h 60 a 3,3 0 0 0 3,-3 V 10 A 3,3 0 0 0 67,7 H 7 a 3,3 0 0 0 -3,3 v 4 H 2 V 10 A 5.006,5.006 0 0 1 7,5 h 60 a 5.006,5.006 0 0 1 5,5 v 44 a 5.006,5.006 0 0 1 -5,5 z"
             id="path871"
             style="fill:url(#linearGradient2657);fill-opacity:1;stroke:none" />
          <path
             d="M 52,69 H 22 a 1,1 0 0 1 -1,-1 c 0,-5 5.269,-5 7,-5 h 18 c 1.731,0 7,0 7,5 a 1,1 0 0 1 -1,1 z M 23.121,67 H 50.879 C 50.53,65.769 49.323,65 46,65 H 28 c -3.323,0 -4.53,0.769 -4.879,2 z"
             id="path873"
             style="fill:url(#linearGradient2659);fill-opacity:1;stroke:none" />
          <path
             d="M 45,65 H 29 a 1,1 0 0 1 -1,-1 v -6 a 1,1 0 0 1 1,-1 h 16 a 1,1 0 0 1 1,1 v 6 a 1,1 0 0 1 -1,1 z M 30,63 H 44 V 59 H 30 Z"
             id="path875"
             style="fill:url(#linearGradient2661);fill-opacity:1;stroke:none" />
          <path
             d="m 3,49 h 68 v 2 H 3 Z"
             id="path877"
             style="fill:url(#linearGradient2663);fill-opacity:1;stroke:none" />
          <path
             d="m 33,53 h 8 v 2 h -8 z"
             id="path879"
             style="fill:url(#linearGradient2665);fill-opacity:1;stroke:none" />
        </g>
        <g
           id="g1035"
           transform="matrix(0.39626771,0,0,0.39626771,-459.11721,193.60839)"
           style="fill:url(#linearGradient2635);fill-opacity:1;stroke:none">
          <g
             id="g978"
             style="fill:url(#linearGradient2842);fill-opacity:1;stroke:none">
            <g
               id="g974"
               style="fill:url(#linearGradient2838);fill-opacity:1;stroke:none">
              <path
                 d="m 608.346,282.843 -0.025,-0.053 c 0.03,0.007 0.062,0.015 0.096,0.019 -0.023,0.014 -0.051,0.02 -0.071,0.034 z"
                 id="path970"
                 style="fill:url(#linearGradient2834);fill-opacity:1;stroke:none" />
              <path
                 d="m 599.022,267.413 c -0.003,-0.001 -0.005,-0.001 -0.006,-0.001 0.001,-0.016 0.006,-0.032 0.006,-0.047 z"
                 id="path972"
                 style="fill:url(#linearGradient2836);fill-opacity:1;stroke:none" />
            </g>
            <path
               d="m 151.727,265.787 c 18.91,-2.47 29.025,3.547 32.637,15.916 l -0.015,-12.505 c 1.551,-16.219 20.648,-22.349 32.917,-22.364 14.007,-0.013 33.039,3.11 33.93,16.899 v 0 L 233.577,30.705 C 233.577,13.749 247.324,0 264.282,0 c 16.956,0 30.696,13.749 30.696,30.705 l 18.486,236.375 c 0,5.708 4.623,10.309 10.339,10.337 8.35,0.044 9.993,-7.825 9.993,-7.825 0.208,-0.804 35.486,-216.552 35.486,-216.552 0.891,-16.929 15.335,-29.93 32.271,-29.055 16.93,0.884 29.944,15.335 29.056,32.264 L 389.47,373.066 c -1.606,10.107 5.284,19.6 15.394,21.191 10.094,1.615 19.585,-5.27 21.191,-15.369 l 29.307,-119.305 c 4.021,-16.469 20.641,-26.555 37.109,-22.528 16.477,4.028 26.568,20.648 22.542,37.116 l -48.625,198.792 c -2.139,17.18 -70.477,141.486 -95.892,147.854 v 79.561 c 0,21.631 -20.885,39.189 -42.48,39.916 -1.436,0.148 -118.125,0.244 -118.125,0.244 -23.663,0 -37.957,-19.184 -37.957,-42.846 V 616.245 C 125.643,581.561 132.477,452.321 132.477,449.366 v -157.67 c 0.003,-18.177 10.304,-24.739 19.25,-25.909 z"
               id="path976"
               style="fill:url(#linearGradient2840);fill-opacity:1;stroke:none" />
          </g>
          <g
             id="g980"
             style="fill:url(#linearGradient2844);fill-opacity:1;stroke:none" />
          <g
             id="g982"
             style="fill:url(#linearGradient2846);fill-opacity:1;stroke:none" />
          <g
             id="g984"
             style="fill:url(#linearGradient2848);fill-opacity:1;stroke:none" />
          <g
             id="g986"
             style="fill:url(#linearGradient2850);fill-opacity:1;stroke:none" />
          <g
             id="g988"
             style="fill:url(#linearGradient2852);fill-opacity:1;stroke:none" />
          <g
             id="g990"
             style="fill:url(#linearGradient2854);fill-opacity:1;stroke:none" />
          <g
             id="g992"
             style="fill:url(#linearGradient2856);fill-opacity:1;stroke:none" />
          <g
             id="g994"
             style="fill:url(#linearGradient2858);fill-opacity:1;stroke:none" />
          <g
             id="g996"
             style="fill:url(#linearGradient2860);fill-opacity:1;stroke:none" />
          <g
             id="g998"
             style="fill:url(#linearGradient2862);fill-opacity:1;stroke:none" />
          <g
             id="g1000"
             style="fill:url(#linearGradient2864);fill-opacity:1;stroke:none" />
          <g
             id="g1002"
             style="fill:url(#linearGradient2866);fill-opacity:1;stroke:none" />
          <g
             id="g1004"
             style="fill:url(#linearGradient2868);fill-opacity:1;stroke:none" />
          <g
             id="g1006"
             style="fill:url(#linearGradient2870);fill-opacity:1;stroke:none" />
          <g
             id="g1008"
             style="fill:url(#linearGradient2872);fill-opacity:1;stroke:none" />
        </g>
        <g
           id="g1184"
           transform="matrix(0.57518888,0,0,0.57518888,-182.354,206.27246)"
           style="fill:url(#linearGradient2633);fill-opacity:1;stroke:none">
          <g
             id="g1120"
             style="fill:url(#linearGradient2878);fill-opacity:1;stroke:none">
            <g
               id="g1118"
               style="fill:url(#linearGradient2876);fill-opacity:1;stroke:none">
              <path
                 d="m 230.656,156.416 c -40.96,0 -74.24,33.28 -74.24,74.24 0,40.96 33.28,74.24 74.24,74.24 40.96,0 74.24,-33.28 74.24,-74.24 0,-40.96 -33.28,-74.24 -74.24,-74.24 z m -5.632,52.224 c -9.216,0 -16.896,7.68 -16.896,16.896 h -24.576 c 0.512,-23.04 18.944,-41.472 41.472,-41.472 z"
                 id="path1116"
                 style="fill:url(#linearGradient2874);fill-opacity:1;stroke:none" />
            </g>
          </g>
          <g
             id="g1126"
             style="fill:url(#linearGradient2884);fill-opacity:1;stroke:none">
            <g
               id="g1124"
               style="fill:url(#linearGradient2882);fill-opacity:1;stroke:none">
              <path
                 d="M 455.936,215.296 C 430.848,184.064 341.248,82.176 230.656,82.176 c -110.592,0 -200.192,101.888 -225.28,133.12 -7.168,8.704 -7.168,21.504 0,30.72 25.088,31.232 114.688,133.12 225.28,133.12 110.592,0 200.192,-101.888 225.28,-133.12 7.168,-8.704 7.168,-21.504 0,-30.72 z m -225.28,122.88 c -59.392,0 -107.52,-48.128 -107.52,-107.52 0,-59.392 48.128,-107.52 107.52,-107.52 59.392,0 107.52,48.128 107.52,107.52 0,59.392 -48.128,107.52 -107.52,107.52 z"
                 id="path1122"
                 style="fill:url(#linearGradient2880);fill-opacity:1;stroke:none" />
            </g>
          </g>
          <g
             id="g1128"
             style="fill:url(#linearGradient2886);fill-opacity:1;stroke:none" />
          <g
             id="g1130"
             style="fill:url(#linearGradient2888);fill-opacity:1;stroke:none" />
          <g
             id="g1132"
             style="fill:url(#linearGradient2890);fill-opacity:1;stroke:none" />
          <g
             id="g1134"
             style="fill:url(#linearGradient2892);fill-opacity:1;stroke:none" />
          <g
             id="g1136"
             style="fill:url(#linearGradient2894);fill-opacity:1;stroke:none" />
          <g
             id="g1138"
             style="fill:url(#linearGradient2896);fill-opacity:1;stroke:none" />
          <g
             id="g1140"
             style="fill:url(#linearGradient2898);fill-opacity:1;stroke:none" />
          <g
             id="g1142"
             style="fill:url(#linearGradient2900);fill-opacity:1;stroke:none" />
          <g
             id="g1144"
             style="fill:url(#linearGradient2902);fill-opacity:1;stroke:none" />
          <g
             id="g1146"
             style="fill:url(#linearGradient2904);fill-opacity:1;stroke:none" />
          <g
             id="g1148"
             style="fill:url(#linearGradient2906);fill-opacity:1;stroke:none" />
          <g
             id="g1150"
             style="fill:url(#linearGradient2908);fill-opacity:1;stroke:none" />
          <g
             id="g1152"
             style="fill:url(#linearGradient2910);fill-opacity:1;stroke:none" />
          <g
             id="g1154"
             style="fill:url(#linearGradient2912);fill-opacity:1;stroke:none" />
          <g
             id="g1156"
             style="fill:url(#linearGradient2914);fill-opacity:1;stroke:none" />
        </g>
      </g>
    </g>
  </g>
</svg>
