<?xml version="1.0" encoding="UTF-8" standalone="no"?>
<!-- Created with Inkscape (http://www.inkscape.org/) -->

<svg
   width="210mm"
   height="297mm"
   viewBox="0 0 210 297"
   version="1.1"
   id="svg19093"
   inkscape:version="1.1.1 (1:1.1+202109281949+c3084ef5ed)"
   sodipodi:docname="math.svg"
   xmlns:inkscape="http://www.inkscape.org/namespaces/inkscape"
   xmlns:sodipodi="http://sodipodi.sourceforge.net/DTD/sodipodi-0.dtd"
   xmlns:xlink="http://www.w3.org/1999/xlink"
   xmlns="http://www.w3.org/2000/svg"
   xmlns:svg="http://www.w3.org/2000/svg">
  <sodipodi:namedview
     id="namedview19095"
     pagecolor="#ffffff"
     bordercolor="#666666"
     borderopacity="1.0"
     inkscape:pageshadow="2"
     inkscape:pageopacity="0.0"
     inkscape:pagecheckerboard="0"
     inkscape:document-units="mm"
     showgrid="false"
     inkscape:zoom="0.64052329"
     inkscape:cx="396.55076"
     inkscape:cy="561.25984"
     inkscape:window-width="1920"
     inkscape:window-height="1022"
     inkscape:window-x="0"
     inkscape:window-y="27"
     inkscape:window-maximized="1"
     inkscape:current-layer="layer1" />
  <defs
     id="defs19090">
    <linearGradient
       inkscape:collect="always"
       xlink:href="#linearGradient1226"
       id="linearGradient1146"
       x1="29.496"
       y1="123.88029"
       x2="103.45112"
       y2="186.41875"
       gradientUnits="userSpaceOnUse" />
    <linearGradient
       id="linearGradient1226">
      <stop
         offset="0"
         stop-color="#0f6"
         id="stop1222"
         style="stop-color:#3fc1c6;stop-opacity:1" />
      <stop
         offset="1"
         stop-color="#0082af"
         id="stop1224" />
    </linearGradient>
    <clipPath
       clipPathUnits="userSpaceOnUse"
       id="clipPath1128">
      <path
         id="path1130"
         style="fill:#3fc1c6;fill-opacity:1;fill-rule:evenodd;stroke:#4a4b49;stroke-width:0.910997;stroke-linecap:round;stroke-miterlimit:6"
         d="m 13.402799,108.0797 v 78.33889 h 13.99398 c 0.175702,-0.21262 0.395814,-0.45059 0.663006,-0.72243 0.412549,-0.34954 0.786852,-0.74993 1.237652,-1.04852 0.35429,-0.23467 0.715843,-0.4609 1.08572,-0.67179 0.13349,-0.1486 0.279331,-0.2882 0.410313,-0.43874 0.341924,-0.22473 0.635064,-0.55288 1.025777,-0.67437 0.180636,-0.0562 0.36875,-0.0705 0.558622,-0.076 0.110655,-0.15032 0.320974,-0.32204 0.659908,-0.52089 0.412301,-0.24193 0.789491,-0.55782 1.237134,-0.72554 0.249557,-0.0935 0.505592,-0.14904 0.765328,-0.18139 0.07382,-0.0383 0.201867,-0.0607 0.412377,-0.094 -0.02638,0.0229 -0.05308,0.0454 -0.07958,0.0682 0.447754,-0.0242 0.903676,0.002 1.358056,0.0217 0.210365,-0.47059 0.431665,-0.93537 0.693499,-1.37873 0.01728,-0.0293 0.04268,-0.0416 0.07338,-0.0439 0.09208,-0.007 0.230555,0.0787 0.332279,0.0863 0.110734,0.008 0.22184,0.009 0.332796,0.0129 0.384514,-0.0323 0.805087,-0.0319 1.260906,-0.0289 0.476483,0.006 0.953389,0.002 1.429885,0.002 0.993389,-0.0303 1.156679,0.0173 1.799892,0.37259 0.26938,-0.13639 0.580633,-0.3022 1.112075,-0.56793 v 5.3e-4 c 0.686996,-0.34349 1.309754,-0.49233 1.84485,-0.49557 2.151203,-0.013 2.876103,2.32846 0.592728,3.85558 0.0011,0.003 0.0019,0.006 0.0031,0.008 1.598721,0.0378 3.544327,1.79413 4.292246,2.60604 0.196651,0.21348 0.362304,0.42566 0.504878,0.6351 h 15.736506 c -0.446826,-0.80518 -0.926036,-1.60097 -1.110009,-2.48253 H 63.0809 57.491058 54.040625 c -2.048227,0 -2.048227,-2.06913 0,-2.06913 h 3.450433 5.589842 4.688086 1.637109 0.710549 c 0.0013,-0.20291 0.202343,-0.47067 0.689364,-0.8294 0.273585,-0.20152 0.499409,-0.49381 0.820621,-0.60462 0.03679,-0.0127 0.185995,-0.0342 0.363803,-0.0579 0.08397,-0.46696 0.212841,-0.57701 0.590145,-1.15393 0.558622,-0.29007 1.10654,-0.60178 1.675868,-0.87023 0.320836,-0.1509 1.364398,0.088 1.73736,0.0103 0.05588,0.004 0.115893,-0.004 0.172601,-0.003 0.422955,-0.0891 0.850807,-0.1391 1.288809,-0.13074 0.55204,0.17073 1.128575,0.27596 1.655712,0.51263 0.700458,0.31451 1.19211,1.51511 1.182876,2.43344 0.183626,-0.0944 0.369112,-0.18582 0.556037,-0.27285 0.208259,-0.097 0.431515,-0.15766 0.649574,-0.22996 0.04036,-0.0134 0.04104,-0.012 0.07183,-0.0222 0.0031,0.0603 0.01175,0.11074 0.01707,0.1695 -1.85e-4,-0.0418 0.0048,-0.0828 0.02635,-0.12041 0.01789,-0.0312 0.03486,-0.0533 0.05219,-0.0801 -0.02851,0.009 -0.0546,0.0169 -0.0956,0.0305 -0.02088,-0.40262 0.03441,-0.76916 0.372071,-0.29972 -0.083,0.0279 -0.174927,0.11241 -0.276469,0.26924 0.137692,-0.0438 0.201107,-0.0588 0.395841,-0.0894 -0.04341,-0.0717 -0.08175,-0.12839 -0.118338,-0.17932 0.238861,-0.0793 0.401566,0.28315 0.497644,0.59738 0.01913,-0.0281 0.03954,-0.0551 0.05788,-0.0837 0.0087,0.006 0.01855,0.0106 0.02739,0.0165 -0.03995,-0.0924 -0.08272,-0.18503 -0.04031,-0.26304 0.05145,-0.0947 0.107884,0.0846 0.140044,0.32453 0.212815,0.12494 0.449062,0.22685 0.58446,0.42737 7.93e-4,0.001 0.0013,0.003 0.0021,0.004 0.206349,-0.23519 0.30629,-0.30266 0.838192,0.0868 0.106281,0.0779 0.07023,0.34451 0.05839,0.47801 -0.02916,0.36825 0.02011,0.73967 -0.0083,1.10794 -0.02283,0.29863 -0.06456,0.59552 -0.107487,0.89193 -0.02819,0.19468 -0.03294,0.39817 -0.105937,0.58085 -0.200943,0.50289 -0.352742,0.72452 -0.579808,1.002 -0.0026,0.29993 -0.01153,0.59961 -0.02532,0.89917 H 103.45112 V 108.0797 Z m 46.184778,39.67924 c 0.890863,0 1.779987,0.76158 2.010214,2.28048 0.982274,0.38903 1.377448,0.56923 1.383377,1.46451 0.674605,0.37817 0.891548,1.03767 1.157036,2.01073 0.03947,0.14464 0.03208,0.29124 0.01704,0.43821 0.918239,0.63808 1.204196,2.01103 -0.05168,3.28818 -0.0021,0.16722 -0.0024,0.33468 0.0036,0.50126 -0.02535,1.38522 0.441151,2.8284 -0.06511,4.17804 -0.345943,1.57343 -0.483738,3.17177 -0.817523,4.74958 -0.05933,0.28044 0.03152,0.78117 -0.25218,0.82217 -4.303262,0.62206 -4.209063,1.17519 -4.212664,-0.4563 -0.0024,-1.86399 0.0026,-3.72794 0.0057,-5.59191 -0.232958,-0.0902 -0.422815,-0.21295 -0.579811,-0.35864 -0.03375,-0.0112 -0.06465,-0.0256 -0.09457,-0.0413 -1.10068,0.0578 -2.226286,-0.17725 -2.22777,-2.18177 5.2e-5,-0.0343 -8e-5,-0.0686 0,-0.10284 -0.426654,-0.38977 -0.413282,-0.58985 -0.421164,-1.24799 0.0222,-0.66225 0.06915,-0.51137 -0.0011,-1.17047 -0.02611,-0.25182 -0.154453,-1.38219 -0.08527,-1.43919 0.153548,-0.12657 0.325776,-0.22838 0.507463,-0.31729 -0.0051,-0.0778 -0.0104,-0.15584 -0.01603,-0.23358 -0.01199,0.001 -0.01021,-0.0179 -0.0031,-0.046 -0.05411,-0.75004 -0.100053,-1.49315 0.301273,-2.1947 0.07614,0.65249 -0.02813,-0.0332 0.179318,-0.62166 0.243224,-0.68992 0.706118,-1.18682 1.272792,-1.56683 0.257646,-1.4398 1.122704,-2.16266 1.990058,-2.16266 z m 16.449643,30.62707 c -0.0862,0.0119 -0.337275,0.085 -0.253216,0.0625 0.08708,-0.0233 0.174598,-0.042 0.262001,-0.062 -0.0021,1.8e-4 -0.0068,-8e-4 -0.0088,-5.3e-4 z m -3.166731,1.88257 c 0.418465,-0.0471 0.52307,-0.056 -0.639755,0.0646 -0.005,0.004 -0.01005,0.009 -0.01497,0.0129 0.224459,-0.0277 0.470635,-0.0568 0.65474,-0.0775 z m 8.72608,0.63407 c 0.0059,0.0534 0.0087,0.11583 0.01601,0.16123 0.01016,0.004 0.01998,0.0107 0.02997,0.016 -0.01609,-0.0598 -0.03438,-0.11916 -0.04599,-0.17725 z m -0.439248,0.99787 c -0.0056,0.003 -0.01095,0.006 -0.01654,0.008 0.0038,7.9e-4 0.0071,0.002 0.01085,0.003 0.0021,-0.004 0.0035,-0.007 0.0057,-0.0108 z m 2.698025,0.30748 c -0.0407,0.0477 -0.03087,0.0349 -0.05478,0.061 0.09887,0.0362 0.08118,0.004 0.05478,-0.061 z m -3.92534,2.81998 c -0.0069,8e-5 -0.01381,5.3e-4 -0.02066,5.3e-4 -0.125439,0.13685 -0.249309,0.2744 -0.376722,0.41289 -0.873043,0.75079 -0.98653,0.8501 -1.153932,0.97721 h 1.133263 c 0.06601,-0.23008 0.124322,-0.42175 0.331245,-1.13585 0.02826,-0.0852 0.0575,-0.16994 0.08682,-0.25477 z m -32.362884,0.17932 c -0.0781,-0.003 -0.156379,-8e-4 -0.234611,0.003 0.06334,0.10813 0.129148,0.2151 0.189653,0.32453 0.156057,0.28225 0.274273,0.5532 0.364318,0.81391 0.361765,-0.46618 0.580808,-0.94129 0.178285,-1.05989 -0.165503,-0.0488 -0.331462,-0.0746 -0.497645,-0.0816 z m 26.357049,1.13533 c -0.0829,0.0267 -0.173226,0.0546 -0.230479,0.0765 h 0.154514 c 0.02442,-0.0244 0.05046,-0.0508 0.07596,-0.0765 z" />
    </clipPath>
  </defs>
  <g
     inkscape:label="Layer 1"
     inkscape:groupmode="layer"
     id="layer1">
    <path
       style="fill:url(#linearGradient1146);fill-opacity:1;stroke-width:0.999999"
       d="m 41.58708,190.65842 c -0.366712,-0.36671 -0.493363,-0.40438 -0.802766,-0.23879 -0.523906,0.28038 -2.368792,0.24203 -3.100425,-0.0645 -3.344465,-1.40101 -3.532685,-6.23188 -0.305472,-7.84007 0.981273,-0.48899 2.4828,-0.61096 3.369775,-0.27373 0.390133,0.14833 0.508461,0.1224 0.701939,-0.15382 0.127983,-0.18273 0.430573,-0.38189 0.672427,-0.4426 0.505795,-0.12694 1.381835,0.26232 1.544534,0.68631 0.05934,0.15462 0.107885,1.99763 0.107885,4.09556 v 3.81444 l -0.426287,0.42628 c -0.546459,0.54646 -1.20946,0.54302 -1.76161,-0.009 z m -1.029254,-3.16795 c 1.016697,-1.01669 0.215414,-2.82244 -1.252428,-2.82244 -1.849303,0 -2.298163,2.80251 -0.522546,3.26262 0.769107,0.1993 1.256326,0.0785 1.774974,-0.44018 z m 33.411583,3.27154 -0.409995,-0.3318 -0.05021,-5.54092 c -0.04903,-5.41424 -0.04181,-5.55157 0.316532,-6.00715 0.457807,-0.58201 1.383653,-0.63981 1.904565,-0.11889 0.293591,0.29359 0.347336,0.57889 0.347336,1.84379 0,1.47023 0.0068,1.49443 0.390763,1.38124 3.1676,-0.93391 6.091541,0.89547 6.337963,3.96538 0.16058,2.00053 -0.668272,3.58013 -2.362398,4.50219 -1.162672,0.6328 -2.30117,0.75811 -3.560844,0.39191 -0.892449,-0.25944 -1.026504,-0.26147 -1.370177,-0.0207 -0.512025,0.35864 -1.047955,0.33607 -1.543524,-0.065 z m 5.128832,-2.53655 c 1.474741,-0.6998 1.519631,-2.91297 0.07425,-3.6604 -1.668186,-0.86265 -3.580286,0.86272 -2.861794,2.58232 0.28979,0.69355 1.169177,1.3397 1.824729,1.34074 0.224361,3.5e-4 0.657625,-0.11783 0.962815,-0.26266 z m -57.696447,-2.39635 c -0.366216,-0.38982 -0.377614,-0.52873 -0.377614,-4.60226 v -4.20031 h -3.114757 c -1.734749,0 -3.325096,-0.08 -3.589503,-0.1805 -0.953749,-0.36261 -1.194366,-1.18246 -0.577282,-1.96696 l 0.359945,-0.45759 h 3.460799 3.460798 v -30.94985 -30.94985 l -2.834041,2.81528 c -3.088287,3.06784 -3.369168,3.22732 -4.207495,2.389 -0.883427,-0.88343 -0.784263,-1.03122 3.702414,-5.5179 3.512662,-3.51266 4.204714,-4.12869 4.638181,-4.12869 0.43296,0 1.122316,0.61125 4.589548,4.06956 3.854364,3.84444 4.080062,4.10507 4.080062,4.71147 0,0.46116 -0.113007,0.73341 -0.401314,0.96687 -0.833906,0.67526 -1.108097,0.50985 -4.128261,-2.49031 l -2.834041,-2.81528 0.003,8.32931 0.003,8.32931 0.952141,0.41218 c 2.242885,0.97094 4.127351,2.65669 7.990907,7.14824 2.763013,3.21211 4.337322,4.59049 6.247171,5.46964 1.998468,0.91995 3.831041,1.17394 6.831727,0.94684 0.999323,-0.0756 1.131178,-0.0455 1.432777,0.32671 0.385479,0.4758 0.422959,1.19244 0.08563,1.63716 -0.338153,0.4458 -1.172433,0.64336 -3.053197,0.72299 l -1.649873,0.0699 v 14.21032 14.21031 l 11.754505,0.0446 11.754504,0.0446 0.358994,0.45639 c 0.467652,0.59453 0.45308,0.97546 -0.06013,1.57214 l -0.419119,0.48727 -21.11599,0.0455 -21.115983,0.0455 v 4.14262 c 0,3.928 -0.01865,4.16632 -0.359946,4.60021 -0.470508,0.59815 -1.33367,0.62387 -1.867494,0.0557 z m 18.336344,-25.92727 -0.04444,-14.51964 -1.042021,-0.39318 c -2.961237,-1.11733 -4.803052,-2.69593 -9.256859,-7.93392 -1.824436,-2.14567 -3.728103,-3.92186 -4.868591,-4.5426 l -0.897022,-0.48821 v 21.1986 21.1986 h 8.076657 8.076652 z M 92.5889,183.86309 c -0.702522,-0.89311 -0.570397,-1.11326 2.565532,-4.27491 l 2.540792,-2.56164 H 84.654633 c -9.073232,0 -13.208103,-0.0584 -13.591192,-0.19194 -0.873454,-0.30448 -1.168187,-1.249 -0.617514,-1.97894 0.239938,-0.31804 0.521477,-0.35466 3.337632,-0.43417 l 3.075587,-0.0868 0.04417,-19.91939 0.04417,-19.9194 -0.785654,-0.66052 c -1.161347,-0.97638 -2.747805,-1.89449 -4.053092,-2.34561 -1.002421,-0.34645 -1.485741,-0.39808 -3.672555,-0.39235 -2.281327,0.006 -2.628361,0.0488 -3.689024,0.4555 -2.656035,1.01837 -4.196113,2.29904 -7.672552,6.38024 -3.000607,3.5226 -4.613236,5.05406 -5.321915,5.05406 -0.332751,0 -0.689198,-0.16354 -0.971334,-0.44568 -0.669762,-0.66976 -0.465362,-1.34266 0.726907,-2.393 0.525349,-0.46281 2.037517,-2.104 3.360375,-3.64707 4.553262,-5.31126 6.637836,-6.87484 10.354645,-7.76672 1.713215,-0.4111 4.584743,-0.44433 6.347816,-0.0735 3.808304,0.8011 6.218776,2.65712 11.500685,8.85531 3.348573,3.92948 5.771714,5.36921 9.6544,5.73626 0.903161,0.0854 1.374956,0.21714 1.606445,0.44863 0.449411,0.44941 0.429129,1.39813 -0.03892,1.82044 -0.789895,0.71271 -4.611372,0.13869 -7.014315,-1.05362 -2.14214,-1.0629 -4.032567,-2.7028 -6.812541,-5.90968 l -0.903306,-1.04203 -0.0059,18.45246 -0.0066,18.45246 h 9.030848 c 4.966972,0 9.030855,-0.0555 9.030855,-0.12344 0,-0.0679 -1.211351,-1.34338 -2.691894,-2.8344 -2.896057,-2.91657 -3.035186,-3.15835 -2.331941,-4.05238 0.269205,-0.34225 0.516823,-0.4576 0.982237,-0.4576 0.578143,0 0.892456,0.26798 4.430398,3.77733 3.791626,3.76097 4.300296,4.36467 4.300296,5.10372 0,0.27495 -1.18006,1.57141 -4.038796,4.43721 -3.804805,3.81418 -4.075744,4.04876 -4.676493,4.04876 -0.48206,0 -0.725542,-0.11168 -0.997642,-0.4576 z M 58.768267,160.89053 c -0.764197,-0.19348 -2.099435,-1.0012 -2.312172,-1.39871 -0.299222,-0.55909 -0.206093,-1.35457 0.203219,-1.73591 0.508881,-0.47409 1.116115,-0.4463 1.809828,0.0828 0.743331,0.56697 1.445085,0.70171 1.891333,0.36315 0.333886,-0.25331 0.317063,-0.27547 -0.43417,-0.57205 -2.532016,-0.99957 -3.299738,-1.73952 -3.299738,-3.18041 0,-1.67953 1.475147,-2.87624 3.352965,-2.72008 2.062414,0.17152 3.511614,1.30549 3.08899,2.41708 -0.328819,0.86487 -1.168081,1.0408 -2.273871,0.47667 -0.682023,-0.34795 -1.563031,-0.46692 -1.563031,-0.21108 0,0.0749 0.523176,0.32893 1.162613,0.56442 2.048,0.75424 3.065938,2.17069 2.647935,3.68457 -0.208798,0.7562 -0.884047,1.60786 -1.546366,1.95036 -0.606761,0.31378 -2.019657,0.45839 -2.727535,0.27917 z m -11.930641,-35.97765 -0.457597,-0.35995 v -2.93532 -2.93533 l -0.499966,-0.25855 c -0.935528,-0.48378 -0.98355,-1.43224 -0.107885,-2.13093 0.558491,-0.44562 0.607838,-0.56043 0.607845,-1.41414 6e-6,-0.82017 0.06743,-0.99656 0.57492,-1.50405 1.042343,-1.04234 2.891778,-1.19776 3.596217,-0.30221 0.450324,0.57249 0.434564,0.96121 -0.06242,1.53896 -0.282977,0.32898 -0.573542,0.47281 -0.955187,0.47281 -0.47633,0 -0.548494,0.06 -0.548494,0.45616 0,0.36434 0.113221,0.48959 0.562554,0.62231 1.088303,0.32146 1.09597,1.84133 0.01168,2.3201 l -0.551573,0.24356 -0.05474,2.85452 -0.05474,2.85453 -0.487278,0.41873 c -0.597067,0.51309 -0.977721,0.52732 -1.573344,0.0588 z m 7.561759,-1.11688 c -1.121963,-1.42635 -1.161911,-8.14754 -0.0573,-9.63807 0.467101,-0.63028 1.38385,-0.67578 1.928786,-0.0957 l 0.414991,0.44173 -0.291313,1.52028 c -0.35736,1.86494 -0.366779,3.90336 -0.02547,5.51462 0.34322,1.62036 0.327585,1.87088 -0.144459,2.31434 -0.558431,0.52462 -1.388025,0.49862 -1.825234,-0.0572 z m 17.696434,-0.0228 c -0.42928,-0.54575 -0.428151,-0.52304 -0.102456,-2.06068 0.347106,-1.6387 0.334714,-4.34439 -0.02678,-5.842 -0.28272,-1.17135 -0.281145,-1.21495 0.06065,-1.67472 0.485585,-0.65315 1.397982,-0.72967 1.931313,-0.16197 1.187064,1.26358 1.180664,8.53037 -0.0086,9.80621 -0.519481,0.55728 -1.387827,0.52598 -1.854134,-0.0668 z m -5.769975,-0.23424 c -0.157717,-0.096 -0.700126,-0.73217 -1.205351,-1.41367 l -0.918593,-1.23911 -0.412483,0.50003 c -1.656357,2.00794 -1.80633,2.14991 -2.271074,2.14991 -0.982999,0 -1.650477,-0.97476 -1.2214,-1.78369 0.112958,-0.21295 0.65857,-0.98386 1.212466,-1.71312 l 1.007088,-1.32593 -1.030062,-1.36596 c -0.676529,-0.89714 -1.031617,-1.53258 -1.034597,-1.85144 -0.0053,-0.53336 0.671633,-1.33806 1.125061,-1.33806 0.539547,0 1.222627,0.51623 1.822805,1.37757 0.33432,0.47979 0.657068,0.8741 0.717233,0.87625 0.06019,0.002 0.437169,-0.43025 0.837798,-0.96087 0.400622,-0.53062 0.914478,-1.04955 1.141898,-1.15317 0.863522,-0.39345 1.99753,0.58559 1.713785,1.4796 -0.06347,0.20006 -0.542599,0.93127 -1.064667,1.62489 l -0.949201,1.26114 1.232959,1.67257 c 0.681328,0.92425 1.232965,1.8503 1.232965,2.06981 0,0.85336 -1.221878,1.56836 -1.93663,1.13325 z"
       id="path887"
       clip-path="url(#clipPath1128)"
       transform="matrix(2.3462151,0,0,2.3462151,-30.536331,-199.86413)" />
  </g>
</svg>
