<?xml version="1.0" encoding="UTF-8" standalone="no"?>
<!-- Created with Inkscape (http://www.inkscape.org/) -->

<svg
   width="210mm"
   height="297mm"
   viewBox="0 0 210 297"
   version="1.1"
   id="svg18730"
   inkscape:version="1.1.1 (1:1.1+202109281949+c3084ef5ed)"
   sodipodi:docname="tech_short.svg"
   xmlns:inkscape="http://www.inkscape.org/namespaces/inkscape"
   xmlns:sodipodi="http://sodipodi.sourceforge.net/DTD/sodipodi-0.dtd"
   xmlns:xlink="http://www.w3.org/1999/xlink"
   xmlns="http://www.w3.org/2000/svg"
   xmlns:svg="http://www.w3.org/2000/svg">
  <sodipodi:namedview
     id="namedview18732"
     pagecolor="#ffffff"
     bordercolor="#666666"
     borderopacity="1.0"
     inkscape:pageshadow="2"
     inkscape:pageopacity="0.0"
     inkscape:pagecheckerboard="0"
     inkscape:document-units="mm"
     showgrid="false"
     inkscape:zoom="0.64052329"
     inkscape:cx="396.55076"
     inkscape:cy="561.25984"
     inkscape:window-width="1920"
     inkscape:window-height="1022"
     inkscape:window-x="0"
     inkscape:window-y="27"
     inkscape:window-maximized="1"
     inkscape:current-layer="layer1" />
  <defs
     id="defs18727">
    <linearGradient
       inkscape:collect="always"
       xlink:href="#linearGradient1226"
       id="linearGradient1138"
       x1="159.51164"
       y1="29.411085"
       x2="207.10893"
       y2="82.96772"
       gradientUnits="userSpaceOnUse"
       gradientTransform="matrix(3.637936,0,0,3.637936,-547.36332,-30.383782)" />
    <linearGradient
       id="linearGradient1226">
      <stop
         offset="0"
         stop-color="#0f6"
         id="stop1222"
         style="stop-color:#3fc1c6;stop-opacity:1" />
      <stop
         offset="1"
         stop-color="#0082af"
         id="stop1224" />
    </linearGradient>
  </defs>
  <g
     inkscape:label="Layer 1"
     inkscape:groupmode="layer"
     id="layer1">
    <path
       style="fill:url(#linearGradient1138);fill-opacity:1;stroke-width:3.63794"
       d="M 14.660018,270.91559 C 8.0258057,269.11836 3.2466485,263.98852 1.8304003,257.14448 1.4316458,255.21747 1.2943869,220.10129 1.3950857,145.78176 1.5358679,41.852449 1.5857128,37.121823 2.5623519,34.606204 3.9851138,30.94174 7.8926196,26.796781 11.675602,24.939088 l 3.158164,-1.550892 h 72.273187 72.273127 l 2.76909,1.366856 c 4.01686,1.982784 7.63959,5.831819 9.05864,9.624547 1.01339,2.708505 1.18698,4.34922 1.18698,11.218466 0,4.459335 -0.25429,8.520945 -0.57024,9.111476 -0.31359,0.586022 -1.29812,1.441901 -2.18774,1.90195 -2.52219,1.304259 -4.73919,1.049782 -6.78664,-0.779005 l -1.80864,-1.615467 -0.27685,-8.01911 c -0.31033,-8.989696 -0.66188,-9.864983 -4.37512,-10.896448 -1.27896,-0.35528 -26.27428,-0.554944 -69.715738,-0.556923 -72.973054,-0.0035 -70.262064,-0.109431 -72.321427,2.830721 -0.825849,1.179047 -0.903119,8.907511 -0.903119,90.330671 v 89.04135 h 73.65771 73.657694 l 0.002,-11.76862 c 0.002,-10.67924 0.10199,-11.9321 1.07883,-13.53453 1.40205,-2.29944 4.38231,-3.21911 6.95209,-2.1454 3.77011,1.57526 3.59717,-0.1361 3.59717,35.59622 0,30.50922 -0.0582,32.42211 -1.06611,35.07487 -1.6306,4.29137 -4.49867,7.39968 -8.76673,9.50098 l -3.71186,1.82749 -70.623622,0.10728 c -59.966695,0.0911 -71.067785,-0.0147 -73.566573,-0.68997 z M 158.02621,259.02096 c 2.46828,-1.32098 2.73844,-3.01015 2.73844,-17.12439 V 228.57744 H 87.106953 13.449241 v 13.88803 13.88805 l 1.618845,1.61885 1.618845,1.61882 h 70.136921 c 47.045018,0 70.487668,-0.1877 71.202358,-0.57023 z M 86.220823,248.29334 c -1.536376,-1.53641 -1.882966,-2.30594 -1.882966,-4.18112 0,-1.26401 0.362699,-2.99985 0.80632,-3.85746 0.872439,-1.68709 3.834453,-3.3713 5.923179,-3.36799 2.954185,0.003 6.562103,3.65219 6.562103,6.63403 0,2.13863 -1.558233,4.91227 -3.251769,5.78799 -0.922665,0.47714 -2.711748,0.86751 -3.975724,0.86751 -1.875174,0 -2.644735,-0.34671 -4.181143,-1.88296 z m -27.732144,-57.6172 c -0.966937,-0.42749 -2.213039,-1.47151 -2.769065,-2.31995 -0.955893,-1.45862 -1.020002,-4.16972 -1.176322,-49.7494 -0.09101,-26.51372 -0.01143,-49.276434 0.175713,-50.583824 0.626523,-4.364587 6.999613,-9.868428 17.1578,-14.817562 7.577775,-3.691959 13.649939,-5.275617 21.661028,-5.649383 12.619167,-0.588751 24.839217,2.850371 35.298577,9.934191 l 3.23932,2.193897 3.12957,-2.186499 c 17.23312,-12.040134 40.15107,-13.385686 59.19934,-3.475687 5.583,2.904585 13.01537,8.838646 14.20177,11.338753 0.82844,1.74585 0.89792,6.476117 0.76419,52.041124 l -0.14705,50.12068 -1.56914,1.63769 c -1.80216,1.88093 -4.15384,2.52969 -6.26296,1.72777 -0.80452,-0.30595 -2.82075,-1.79728 -4.48052,-3.31419 -16.11915,-14.732 -42.48661,-14.49711 -59.07598,0.52626 -5.01496,4.54159 -6.48759,4.47714 -12.23779,-0.5355 -6.97073,-6.07667 -14.22328,-9.26794 -24.02996,-10.57359 -11.336014,-1.50927 -23.960575,2.0803 -32.941866,9.36649 -1.777686,1.44214 -3.767029,3.04698 -4.420836,3.5663 -1.731547,1.37535 -3.716086,1.63659 -5.715884,0.75243 z m 13.106037,-20.24682 c 15.303882,-7.69468 33.252364,-7.79654 49.156594,-0.27903 l 5.12283,2.42141 V 131.63717 90.702723 l -2.90755,-2.310707 c -3.51417,-2.79279 -10.46331,-6.198107 -15.36842,-7.531027 -2.68446,-0.72948 -5.6417,-0.97421 -11.630159,-0.96242 -7.611753,0.0148 -8.304608,0.11032 -13.291597,1.82979 -5.704612,1.96687 -8.649994,3.511137 -13.153171,6.896117 l -2.90751,2.185567 v 40.915907 c 0,22.50378 0.130212,40.91596 0.289211,40.91596 0.158967,0 2.269487,-0.99567 4.689804,-2.21259 z m 71.447754,-0.10804 c 8.30548,-4.08648 19.86414,-6.41079 28.24468,-5.67967 9.29373,0.81074 15.6722,2.77287 25.61406,7.87922 0.22847,0.11746 0.41534,-18.25005 0.41534,-40.8164 V 90.674683 l -3.46135,-2.572117 c -4.0567,-3.01455 -9.75949,-5.782697 -14.81463,-7.191107 -5.05559,-1.40854 -17.65085,-1.40854 -22.7065,0 -5.05505,1.40841 -10.75788,4.176557 -14.81458,7.191107 l -3.4614,2.572117 v 41.029777 c 0,22.56637 0.18699,40.94668 0.4154,40.84514 0.22844,-0.10144 2.2845,-1.10425 4.56898,-2.22826 z"
       id="path871" />
  </g>
</svg>
