<?xml version="1.0" encoding="UTF-8" standalone="no"?>
<svg
   data-name="Layer 1"
   id="Layer_1"
   viewBox="0 0 196.89912 224.51091"
   version="1.1"
   sodipodi:docname="tt.svg"
   width="196.89912"
   height="224.51091"
   inkscape:version="1.1-dev (7bb339f916, 2021-01-15, custom)"
   xmlns:inkscape="http://www.inkscape.org/namespaces/inkscape"
   xmlns:sodipodi="http://sodipodi.sourceforge.net/DTD/sodipodi-0.dtd"
   xmlns:xlink="http://www.w3.org/1999/xlink"
   xmlns="http://www.w3.org/2000/svg"
   xmlns:svg="http://www.w3.org/2000/svg"
   xmlns:rdf="http://www.w3.org/1999/02/22-rdf-syntax-ns#"
   xmlns:cc="http://creativecommons.org/ns#"
   xmlns:dc="http://purl.org/dc/elements/1.1/">
  <metadata
     id="metadata37">
    <rdf:RDF>
      <cc:Work
         rdf:about="">
        <dc:format>image/svg+xml</dc:format>
        <dc:type
           rdf:resource="http://purl.org/dc/dcmitype/StillImage" />
      </cc:Work>
    </rdf:RDF>
  </metadata>
  <sodipodi:namedview
     pagecolor="#ffffff"
     bordercolor="#666666"
     borderopacity="1"
     objecttolerance="10"
     gridtolerance="10"
     guidetolerance="10"
     inkscape:pageopacity="0"
     inkscape:pageshadow="2"
     inkscape:window-width="1916"
     inkscape:window-height="1050"
     id="namedview35"
     showgrid="false"
     inkscape:zoom="0.8691521"
     inkscape:cx="237.58787"
     inkscape:cy="151.29688"
     inkscape:window-x="0"
     inkscape:window-y="26"
     inkscape:window-maximized="1"
     inkscape:current-layer="g32"
     inkscape:pagecheckerboard="0"
     fit-margin-top="0"
     fit-margin-left="0"
     fit-margin-right="0"
     fit-margin-bottom="0" />
  <defs
     id="defs4">
    <linearGradient
       inkscape:collect="always"
       id="linearGradient894">
      <stop
         style="stop-color:#00ff66;stop-opacity:1"
         offset="0"
         id="stop890" />
      <stop
         style="stop-color:#0082af;stop-opacity:1"
         offset="1"
         id="stop892" />
    </linearGradient>
    <style
       id="style2">
      .cls-1, .cls-2, .cls-3 {
        fill: none;
        stroke: #353535;
        stroke-width: 2px;
      }

      .cls-1, .cls-2 {
        stroke-linecap: round;
      }

      .cls-1 {
        stroke-miterlimit: 10;
      }

      .cls-2, .cls-3 {
        stroke-linejoin: round;
      }
    </style>
    <linearGradient
       inkscape:collect="always"
       xlink:href="#linearGradient894"
       id="linearGradient896"
       x1="1.5254236"
       y1="0.74440819"
       x2="39.589581"
       y2="31.964746"
       gradientUnits="userSpaceOnUse" />
    <clipPath
       clipPathUnits="userSpaceOnUse"
       id="clipPath1044">
      <rect
         style="opacity:0.256562;fill:#008cff;stroke-width:0.499999;stroke-linecap:round;stroke-linejoin:round"
         id="rect1046"
         width="30.993855"
         height="49.731895"
         x="145.23416"
         y="154.06508" />
    </clipPath>
    <linearGradient
       inkscape:collect="always"
       xlink:href="#linearGradient894"
       id="linearGradient834"
       gradientUnits="userSpaceOnUse"
       x1="1.5254236"
       y1="0.74440819"
       x2="39.589581"
       y2="31.964746" />
    <linearGradient
       inkscape:collect="always"
       xlink:href="#linearGradient894"
       id="linearGradient1101"
       x1="-426.94797"
       y1="38.925694"
       x2="-230.04884"
       y2="38.925694"
       gradientUnits="userSpaceOnUse" />
  </defs>
  <title
     id="title6" />
  <g
     id="g842"
     style="stroke:url(#linearGradient896)"
     transform="translate(428.44797,87.329767)">
    <g
       transform="translate(-1.5000161,-14)"
       id="g32"
       style="stroke:url(#linearGradient834)">
      <path
         style="fill:url(#linearGradient1101);fill-opacity:1;stroke:none"
         d="m -330.7914,149.88946 c -0.5896,-0.71043 -1.2072,-4.38889 -1.37244,-8.17436 l -0.30044,-6.88267 -5.86592,-1.32879 c -9.06197,-2.05277 -17.27207,-6.98859 -26.74839,-16.08084 l -8.6143,-8.26517 -7.8857,4.50935 c -10.09469,5.77253 -20.63106,10.1535 -26.50398,11.0202 -9.12495,1.34663 -14.43379,-4.24369 -13.69045,-14.41637 0.97568,-13.352216 9.59488,-22.552306 30.51833,-32.575106 0.11527,-0.0552 -0.70539,-3.00608 -1.8237,-6.55747 -5.28547,-16.78503 -6.29956,-33.10976 -2.88589,-46.45708 1.1,-4.30096 2,-7.90683 2,-8.01304 0,-0.10621 -4.1625,-0.45649 -9.25,-0.77839 -15.98012,-1.01111 -23.76974,-5.45355 -23.73355,-13.5352898 0.074,-16.5214402 27.86405,-27.4435492 50.34105,-19.7851502 l 6.85749,2.3365 5.53965,-3.3358 c 3.0468,-1.83469 7.53161,-4.09654 9.96624,-5.02633 3.72139,-1.421216 4.32888,-2.022861 3.81323,-3.776519 -6.51804,-22.166811 -2.94712,-36.462182 10.96589,-43.899463 5.55352,-2.968667 16.32519,-2.92218 22.14255,0.09556 13.41712,6.960094 17.17957,22.187367 10.82334,43.803902 -0.51565,1.753658 0.0918,2.355303 3.81323,3.77651 2.43463,0.9298 6.91944,3.19165 9.96624,5.02634 l 5.53965,3.3358 6.85749,-2.3365 c 18.5191,-6.30986 41.60274,-0.26963 48.1075,12.5881402 6.26078,12.3755 -1.09129,19.4413098 -21.57701,20.7368898 -8.87363,0.5612 -9.29787,0.69188 -8.72759,2.68836 3.1845,11.14849 3.73586,15.68141 3.23533,26.59848 -0.46211,10.07903 -2.90244,22.49722 -6.09189,31 -0.40904,1.09047 1.33047,2.38836 6.37142,4.75386 8.43351,3.95747 17.71115,12.29942 21.01024,18.89125 4.94794,9.886356 3.56805,20.473676 -3.11914,23.931756 -5.70974,2.95261 -17.5083,-0.5249 -34.23705,-10.09104 l -7.8857,-4.50935 -8.6143,8.26517 c -9.47632,9.09225 -17.68642,14.02807 -26.74839,16.08084 l -5.86592,1.32879 -0.30044,6.88267 c -0.29945,6.86001 -1.31795,9.46605 -3.69956,9.46605 -0.69031,0 -1.73751,-0.58126 -2.32712,-1.29169 z m 17.30823,-26.07103 c 7.30005,-3.34207 15.51688,-9.57786 20.27991,-15.39051 l 3.58321,-4.37284 -12.40711,-12.436956 -12.40711,-12.43697 h -14.03001 -14.03001 l -12.36566,12.39542 -12.36565,12.395406 2.83342,3.71482 c 5.60751,7.35182 16.62246,15.06307 25.9279,18.15138 6.43286,2.13496 17.93784,1.20476 24.98111,-2.01975 z m -79.06712,-12.96497 c 16.12332,-8.05206 15.37192,-7.12487 11.28048,-13.919376 -1.88347,-3.12781 -3.98983,-7.05178 -4.6808,-8.71993 -1.48992,-3.59698 -2.71177,-3.73051 -8.30351,-0.90743 -14.25168,7.1952 -23.66268,20.489086 -19.71992,27.856186 1.89191,3.53507 8.29511,2.24704 21.42375,-4.30945 z m 149.62608,4.25283 c 3.77571,-7.05499 -5.73367,-20.647876 -19.25683,-27.526086 -6.11506,-3.11026 -7.2808,-3.02625 -8.79691,0.63395 -0.69097,1.66815 -2.79733,5.59212 -4.6808,8.71993 -4.02146,6.678296 -4.62172,5.815366 8.90479,12.801526 15.27962,7.89162 21.7055,9.33986 23.82975,5.37068 z m -117.12761,-29.337346 11.37983,-11.4122 -6.04947,-10.3378 -6.04946,-10.33779 -14.62248,-0.27688 -14.62248,-0.27688 0.61309,2.77688 c 1.42497,6.45422 3.77254,14.1969 6.14793,20.27688 2.64748,6.77643 10.27122,21 11.25586,21 0.31204,0 5.68827,-5.13549 11.94718,-11.41221 z m 79.21421,5.16221 c 5.6403,-9.9227 10.45322,-22.60699 13.29055,-35.02688 l 0.63438,-2.77688 -14.62248,0.27688 -14.62248,0.27688 -6.04946,10.33779 -6.04947,10.3378 11.37983,11.4122 c 6.25891,6.27672 11.62883,11.41221 11.93315,11.41221 0.30433,0 2.15202,-2.8125 4.10598,-6.25 z m -33.36932,-21.5 c 3.42843,-4.97915 11.24265,-19.13254 11.24265,-20.36309 0,-0.66345 -2.8125,-6.08086 -6.25,-12.03868 l -6.25,-10.83241 h -13 -13 l -6.25,10.83241 c -3.4375,5.95782 -6.25,11.37523 -6.25,12.03868 0,1.23055 7.81422,15.38394 11.24265,20.36309 1.89327,2.74962 1.89526,2.75 14.25735,2.75 12.36209,0 12.36408,-3.8e-4 14.25735,-2.75 z m 48.05988,-27.61518 c 0.45781,-5.57803 -2.49244,-18.97384 -5.73627,-26.04588 -1.53609,-3.34892 -4.92894,-8.9654998 -7.53966,-12.4812998 l -4.74677,-6.39237 -12.53427,12.53428 -12.53427,12.5342698 5.3045,9.35809 c 2.91748,5.14695 6.1684,10.60771 7.22427,12.13501 l 1.91977,2.77693 14.16274,-0.27693 14.16273,-0.27692 z m -88.90917,-7.05726 c 3.35057,-5.73234 6.09194,-10.80159 6.09194,-11.265 0,-0.46342 -5.56764,-6.39684 -12.37253,-13.18539 l -12.37253,-12.3428298 -4.73787,6.63954 c -7.85256,11.0043698 -12.48497,24.6414898 -12.50952,36.8261198 l -0.008,3.75 h 14.90806 14.90806 z m 51.95413,-28.9394698 13.33441,-13.36191 -2.8483,-2.00984 c -4.06348,-2.8673102 -11.95085,-6.6822302 -18.3483,-8.8746102 -7.77267,-2.66366 -27.22733,-2.66366 -35,0 -7.06959,2.42272 -14.60466,6.15971 -18.85493,9.3510602 l -3.35494,2.51907 12.84051,12.86907 12.8405,12.8690698 h 13.02833 13.02832 z m -85.0378,-0.53943 c 1.20597,-2.14573 4.2784,-6.22116996 6.82763,-9.05651 3.05418,-3.39699 4.2978,-5.49233 3.64639,-6.14374 -0.5437,-0.5437002 -4.05763,-1.4971102 -7.80874,-2.1186902 -7.64419,-1.26668 -18.14247,-0.0131 -23.80476,2.8424202 -6.50375,3.27991 -11.36576,9.44003004 -10.085,12.77762 1.12714,2.9373 10.69284,5.27172 22.46595,5.48262 l 6.56586,0.11762 z m 144.39187,1.88759 c 5.38147,-1.53733 6.95246,-3.40997 5.67952,-6.77006996 -3.53248,-9.32440004 -18.50573,-14.90211024 -33.38545,-12.43646024 -3.75111,0.62158 -7.26504,1.57499 -7.80874,2.1186902 -0.65141,0.65141 0.59221,2.74675 3.64639,6.14374 2.54923,2.83534004 5.65129,6.97027 6.89349,9.18872 l 2.25853,4.03355 9.5,-0.60827 c 5.225,-0.33455 11.17232,-1.086 13.21626,-1.6699 z m -84.21626,-35.2013982 c 5.225,0.07134 10.37267,0.261439 11.43926,0.422432 4.84185,0.730837 7.42342,-20.72805 3.47491,-28.88458 -3.22144,-6.654604 -7.00933,-8.822704 -15.41417,-8.822704 -8.40484,0 -12.19273,2.1681 -15.41417,8.822704 -2.57725,5.323891 -2.78089,14.962539 -0.48055,22.745795 2.07305,7.014239 2.16932,7.142487 4.72888,6.299746 1.19121,-0.39221 6.44084,-0.654737 11.66584,-0.583393 z"
         id="path918" />
    </g>
  </g>
</svg>
