<svg xmlns="http://www.w3.org/2000/svg" xmlns:xlink="http://www.w3.org/1999/xlink" data-name="Layer 1" id="Layer_1" version="1.1" width="40.81" height="33.014"><defs id="defs4"><linearGradient id="linearGradient894"><stop offset="0" id="stop890" stop-color="#0f6" stop-opacity="1"/><stop offset="1" id="stop892" stop-color="#0082af" stop-opacity="1"/></linearGradient><linearGradient xlink:href="#linearGradient894" id="linearGradient896" x1="1.525" y1=".744" x2="39.59" y2="31.965" gradientUnits="userSpaceOnUse"/><style id="style2">.cls-2{fill:none;stroke:#353535;stroke-width:2px;stroke-linecap:round;stroke-linejoin:round}</style></defs><g id="g842" stroke="url(#linearGradient896)"><g transform="translate(-1.5 -14)" id="g32" stroke="url(#linearGradient896)"><path id="polyline8" d="M10.06 30h9.167l4.047 1.273h3.83" fill="none" stroke="url(#linearGradient896)" stroke-width="2" stroke-linecap="round" stroke-miterlimit="10"/><path id="path10" d="M28.759 36.928l4.301-9.108a2.048 2.048 0 00-1.187-2.713 2.002 2.002 0 00-2.54 1.247L24.5 37.021 30.727 45v1" class="cls-2" fill="none" stroke="url(#linearGradient896)" stroke-width="2" stroke-linecap="round" stroke-linejoin="round"/><path id="path12" d="M6.759 36.928l4.301-9.108a2.048 2.048 0 00-1.187-2.713 2.002 2.002 0 00-2.54 1.247L2.5 37.021 8.727 45v1" class="cls-2" fill="none" stroke="url(#linearGradient896)" stroke-width="2" stroke-linecap="round" stroke-linejoin="round"/><path id="polyline14" d="M17.453 46v-1l-6.226-7.979L14.162 30" fill="none" stroke="url(#linearGradient896)" stroke-width="2" stroke-linecap="round" stroke-linejoin="round"/><path id="polyline16" d="M39.453 46v-1l-6.226-7.979L41.31 21H3.727v3.354l2.079 4.579" fill="none" stroke="url(#linearGradient896)" stroke-width="2" stroke-linecap="round" stroke-linejoin="round"/><path id="line18" d="M16.727 21v9" fill="none" stroke="url(#linearGradient896)" stroke-width="2" stroke-linecap="round" stroke-linejoin="round"/><path id="polyline20" d="M16.727 25h3l1.916 2.083h7.206" fill="none" stroke="url(#linearGradient896)" stroke-width="2" stroke-linecap="round" stroke-linejoin="round"/><path id="path24" d="M32 15a2 2 0 00-2 2v4l10.975-.396v-4C40.975 15.5 33.105 15 32 15z" class="cls-2" fill="none" stroke="url(#linearGradient896)" stroke-width="2" stroke-linecap="round" stroke-linejoin="round"/></g></g></svg>